<?xml version="1.0" encoding="utf-8"?>
<svg xmlns="http://www.w3.org/2000/svg" xmlns:xlink="http://www.w3.org/1999/xlink" width="600" height="400" viewBox="0 0 2400 1600">
<defs>
  <clipPath id="clip680">
    <rect x="0" y="0" width="2400" height="1600"/>
  </clipPath>
</defs>
<path clip-path="url(#clip680)" d="
M0 1600 L2400 1600 L2400 0 L0 0  Z
  " fill="#ffffff" fill-rule="evenodd" fill-opacity="1"/>
<defs>
  <clipPath id="clip681">
    <rect x="480" y="0" width="1681" height="1600"/>
  </clipPath>
</defs>
<path clip-path="url(#clip680)" d="
M222.501 1486.45 L2352.76 1486.45 L2352.76 47.2441 L222.501 47.2441  Z
  " fill="#ffffff" fill-rule="evenodd" fill-opacity="1"/>
<defs>
  <clipPath id="clip682">
    <rect x="222" y="47" width="2131" height="1440"/>
  </clipPath>
</defs>
<polyline clip-path="url(#clip682)" style="stroke:#000000; stroke-linecap:butt; stroke-linejoin:round; stroke-width:2; stroke-opacity:0.1; fill:none" points="
  265.903,1486.45 265.903,47.2441 
  "/>
<polyline clip-path="url(#clip682)" style="stroke:#000000; stroke-linecap:butt; stroke-linejoin:round; stroke-width:2; stroke-opacity:0.1; fill:none" points="
  688.103,1486.45 688.103,47.2441 
  "/>
<polyline clip-path="url(#clip682)" style="stroke:#000000; stroke-linecap:butt; stroke-linejoin:round; stroke-width:2; stroke-opacity:0.1; fill:none" points="
  1110.3,1486.45 1110.3,47.2441 
  "/>
<polyline clip-path="url(#clip682)" style="stroke:#000000; stroke-linecap:butt; stroke-linejoin:round; stroke-width:2; stroke-opacity:0.1; fill:none" points="
  1532.5,1486.45 1532.5,47.2441 
  "/>
<polyline clip-path="url(#clip682)" style="stroke:#000000; stroke-linecap:butt; stroke-linejoin:round; stroke-width:2; stroke-opacity:0.1; fill:none" points="
  1954.71,1486.45 1954.71,47.2441 
  "/>
<polyline clip-path="url(#clip680)" style="stroke:#000000; stroke-linecap:butt; stroke-linejoin:round; stroke-width:4; stroke-opacity:1; fill:none" points="
  222.501,1486.45 2352.76,1486.45 
  "/>
<polyline clip-path="url(#clip680)" style="stroke:#000000; stroke-linecap:butt; stroke-linejoin:round; stroke-width:4; stroke-opacity:1; fill:none" points="
  265.903,1486.45 265.903,1469.18 
  "/>
<polyline clip-path="url(#clip680)" style="stroke:#000000; stroke-linecap:butt; stroke-linejoin:round; stroke-width:4; stroke-opacity:1; fill:none" points="
  688.103,1486.45 688.103,1469.18 
  "/>
<polyline clip-path="url(#clip680)" style="stroke:#000000; stroke-linecap:butt; stroke-linejoin:round; stroke-width:4; stroke-opacity:1; fill:none" points="
  1110.3,1486.45 1110.3,1469.18 
  "/>
<polyline clip-path="url(#clip680)" style="stroke:#000000; stroke-linecap:butt; stroke-linejoin:round; stroke-width:4; stroke-opacity:1; fill:none" points="
  1532.5,1486.45 1532.5,1469.18 
  "/>
<polyline clip-path="url(#clip680)" style="stroke:#000000; stroke-linecap:butt; stroke-linejoin:round; stroke-width:4; stroke-opacity:1; fill:none" points="
  1954.71,1486.45 1954.71,1469.18 
  "/>
<path clip-path="url(#clip680)" d="M265.903 1515.64 Q262.292 1515.64 260.463 1519.2 Q258.658 1522.75 258.658 1529.87 Q258.658 1536.98 260.463 1540.55 Q262.292 1544.09 265.903 1544.09 Q269.537 1544.09 271.343 1540.55 Q273.171 1536.98 273.171 1529.87 Q273.171 1522.75 271.343 1519.2 Q269.537 1515.64 265.903 1515.64 M265.903 1511.93 Q271.713 1511.93 274.769 1516.54 Q277.847 1521.12 277.847 1529.87 Q277.847 1538.6 274.769 1543.21 Q271.713 1547.79 265.903 1547.79 Q260.093 1547.79 257.014 1543.21 Q253.958 1538.6 253.958 1529.87 Q253.958 1521.12 257.014 1516.54 Q260.093 1511.93 265.903 1511.93 Z" fill="#000000" fill-rule="evenodd" fill-opacity="1" /><path clip-path="url(#clip680)" d="M667.374 1543.18 L683.694 1543.18 L683.694 1547.12 L661.749 1547.12 L661.749 1543.18 Q664.411 1540.43 668.995 1535.8 Q673.601 1531.15 674.782 1529.81 Q677.027 1527.28 677.907 1525.55 Q678.81 1523.79 678.81 1522.1 Q678.81 1519.34 676.865 1517.61 Q674.944 1515.87 671.842 1515.87 Q669.643 1515.87 667.189 1516.63 Q664.759 1517.4 661.981 1518.95 L661.981 1514.23 Q664.805 1513.09 667.259 1512.51 Q669.712 1511.93 671.749 1511.93 Q677.12 1511.93 680.314 1514.62 Q683.509 1517.31 683.509 1521.8 Q683.509 1523.93 682.698 1525.85 Q681.911 1527.74 679.805 1530.34 Q679.226 1531.01 676.124 1534.23 Q673.023 1537.42 667.374 1543.18 Z" fill="#000000" fill-rule="evenodd" fill-opacity="1" /><path clip-path="url(#clip680)" d="M693.555 1512.56 L711.911 1512.56 L711.911 1516.5 L697.837 1516.5 L697.837 1524.97 Q698.856 1524.62 699.874 1524.46 Q700.893 1524.27 701.911 1524.27 Q707.698 1524.27 711.078 1527.44 Q714.457 1530.62 714.457 1536.03 Q714.457 1541.61 710.985 1544.71 Q707.513 1547.79 701.194 1547.79 Q699.018 1547.79 696.749 1547.42 Q694.504 1547.05 692.096 1546.31 L692.096 1541.61 Q694.18 1542.74 696.402 1543.3 Q698.624 1543.86 701.101 1543.86 Q705.106 1543.86 707.444 1541.75 Q709.782 1539.64 709.782 1536.03 Q709.782 1532.42 707.444 1530.31 Q705.106 1528.21 701.101 1528.21 Q699.226 1528.21 697.351 1528.62 Q695.499 1529.04 693.555 1529.92 L693.555 1512.56 Z" fill="#000000" fill-rule="evenodd" fill-opacity="1" /><path clip-path="url(#clip680)" d="M1085 1512.56 L1103.36 1512.56 L1103.36 1516.5 L1089.29 1516.5 L1089.29 1524.97 Q1090.3 1524.62 1091.32 1524.46 Q1092.34 1524.27 1093.36 1524.27 Q1099.15 1524.27 1102.53 1527.44 Q1105.91 1530.62 1105.91 1536.03 Q1105.91 1541.61 1102.43 1544.71 Q1098.96 1547.79 1092.64 1547.79 Q1090.47 1547.79 1088.2 1547.42 Q1085.95 1547.05 1083.54 1546.31 L1083.54 1541.61 Q1085.63 1542.74 1087.85 1543.3 Q1090.07 1543.86 1092.55 1543.86 Q1096.55 1543.86 1098.89 1541.75 Q1101.23 1539.64 1101.23 1536.03 Q1101.23 1532.42 1098.89 1530.31 Q1096.55 1528.21 1092.55 1528.21 Q1090.67 1528.21 1088.8 1528.62 Q1086.95 1529.04 1085 1529.92 L1085 1512.56 Z" fill="#000000" fill-rule="evenodd" fill-opacity="1" /><path clip-path="url(#clip680)" d="M1125.12 1515.64 Q1121.51 1515.64 1119.68 1519.2 Q1117.87 1522.75 1117.87 1529.87 Q1117.87 1536.98 1119.68 1540.55 Q1121.51 1544.09 1125.12 1544.09 Q1128.75 1544.09 1130.56 1540.55 Q1132.39 1536.98 1132.39 1529.87 Q1132.39 1522.75 1130.56 1519.2 Q1128.75 1515.64 1125.12 1515.64 M1125.12 1511.93 Q1130.93 1511.93 1133.98 1516.54 Q1137.06 1521.12 1137.06 1529.87 Q1137.06 1538.6 1133.98 1543.21 Q1130.93 1547.79 1125.12 1547.79 Q1119.31 1547.79 1116.23 1543.21 Q1113.17 1538.6 1113.17 1529.87 Q1113.17 1521.12 1116.23 1516.54 Q1119.31 1511.93 1125.12 1511.93 Z" fill="#000000" fill-rule="evenodd" fill-opacity="1" /><path clip-path="url(#clip680)" d="M1506.36 1512.56 L1528.58 1512.56 L1528.58 1514.55 L1516.03 1547.12 L1511.15 1547.12 L1522.96 1516.5 L1506.36 1516.5 L1506.36 1512.56 Z" fill="#000000" fill-rule="evenodd" fill-opacity="1" /><path clip-path="url(#clip680)" d="M1537.75 1512.56 L1556.1 1512.56 L1556.1 1516.5 L1542.03 1516.5 L1542.03 1524.97 Q1543.05 1524.62 1544.07 1524.46 Q1545.09 1524.27 1546.1 1524.27 Q1551.89 1524.27 1555.27 1527.44 Q1558.65 1530.62 1558.65 1536.03 Q1558.65 1541.61 1555.18 1544.71 Q1551.71 1547.79 1545.39 1547.79 Q1543.21 1547.79 1540.94 1547.42 Q1538.7 1547.05 1536.29 1546.31 L1536.29 1541.61 Q1538.37 1542.74 1540.59 1543.3 Q1542.82 1543.86 1545.29 1543.86 Q1549.3 1543.86 1551.64 1541.75 Q1553.97 1539.64 1553.97 1536.03 Q1553.97 1532.42 1551.64 1530.31 Q1549.3 1528.21 1545.29 1528.21 Q1543.42 1528.21 1541.54 1528.62 Q1539.69 1529.04 1537.75 1529.92 L1537.75 1512.56 Z" fill="#000000" fill-rule="evenodd" fill-opacity="1" /><path clip-path="url(#clip680)" d="M1914.31 1543.18 L1921.95 1543.18 L1921.95 1516.82 L1913.64 1518.49 L1913.64 1514.23 L1921.9 1512.56 L1926.58 1512.56 L1926.58 1543.18 L1934.22 1543.18 L1934.22 1547.12 L1914.31 1547.12 L1914.31 1543.18 Z" fill="#000000" fill-rule="evenodd" fill-opacity="1" /><path clip-path="url(#clip680)" d="M1953.66 1515.64 Q1950.05 1515.64 1948.22 1519.2 Q1946.42 1522.75 1946.42 1529.87 Q1946.42 1536.98 1948.22 1540.55 Q1950.05 1544.09 1953.66 1544.09 Q1957.3 1544.09 1959.1 1540.55 Q1960.93 1536.98 1960.93 1529.87 Q1960.93 1522.75 1959.1 1519.2 Q1957.3 1515.64 1953.66 1515.64 M1953.66 1511.93 Q1959.47 1511.93 1962.53 1516.54 Q1965.61 1521.12 1965.61 1529.87 Q1965.61 1538.6 1962.53 1543.21 Q1959.47 1547.79 1953.66 1547.79 Q1947.85 1547.79 1944.77 1543.21 Q1941.72 1538.6 1941.72 1529.87 Q1941.72 1521.12 1944.77 1516.54 Q1947.85 1511.93 1953.66 1511.93 Z" fill="#000000" fill-rule="evenodd" fill-opacity="1" /><path clip-path="url(#clip680)" d="M1983.83 1515.64 Q1980.21 1515.64 1978.39 1519.2 Q1976.58 1522.75 1976.58 1529.87 Q1976.58 1536.98 1978.39 1540.55 Q1980.21 1544.09 1983.83 1544.09 Q1987.46 1544.09 1989.27 1540.55 Q1991.09 1536.98 1991.09 1529.87 Q1991.09 1522.75 1989.27 1519.2 Q1987.46 1515.64 1983.83 1515.64 M1983.83 1511.93 Q1989.64 1511.93 1992.69 1516.54 Q1995.77 1521.12 1995.77 1529.87 Q1995.77 1538.6 1992.69 1543.21 Q1989.64 1547.79 1983.83 1547.79 Q1978.02 1547.79 1974.94 1543.21 Q1971.88 1538.6 1971.88 1529.87 Q1971.88 1521.12 1974.94 1516.54 Q1978.02 1511.93 1983.83 1511.93 Z" fill="#000000" fill-rule="evenodd" fill-opacity="1" /><polyline clip-path="url(#clip682)" style="stroke:#000000; stroke-linecap:butt; stroke-linejoin:round; stroke-width:2; stroke-opacity:0.1; fill:none" points="
  222.501,1353.48 2352.76,1353.48 
  "/>
<polyline clip-path="url(#clip682)" style="stroke:#000000; stroke-linecap:butt; stroke-linejoin:round; stroke-width:2; stroke-opacity:0.1; fill:none" points="
  222.501,1088.32 2352.76,1088.32 
  "/>
<polyline clip-path="url(#clip682)" style="stroke:#000000; stroke-linecap:butt; stroke-linejoin:round; stroke-width:2; stroke-opacity:0.1; fill:none" points="
  222.501,823.149 2352.76,823.149 
  "/>
<polyline clip-path="url(#clip682)" style="stroke:#000000; stroke-linecap:butt; stroke-linejoin:round; stroke-width:2; stroke-opacity:0.1; fill:none" points="
  222.501,557.981 2352.76,557.981 
  "/>
<polyline clip-path="url(#clip682)" style="stroke:#000000; stroke-linecap:butt; stroke-linejoin:round; stroke-width:2; stroke-opacity:0.1; fill:none" points="
  222.501,292.814 2352.76,292.814 
  "/>
<polyline clip-path="url(#clip680)" style="stroke:#000000; stroke-linecap:butt; stroke-linejoin:round; stroke-width:4; stroke-opacity:1; fill:none" points="
  222.501,1486.45 222.501,47.2441 
  "/>
<polyline clip-path="url(#clip680)" style="stroke:#000000; stroke-linecap:butt; stroke-linejoin:round; stroke-width:4; stroke-opacity:1; fill:none" points="
  222.501,1353.48 248.064,1353.48 
  "/>
<polyline clip-path="url(#clip680)" style="stroke:#000000; stroke-linecap:butt; stroke-linejoin:round; stroke-width:4; stroke-opacity:1; fill:none" points="
  222.501,1088.32 248.064,1088.32 
  "/>
<polyline clip-path="url(#clip680)" style="stroke:#000000; stroke-linecap:butt; stroke-linejoin:round; stroke-width:4; stroke-opacity:1; fill:none" points="
  222.501,823.149 248.064,823.149 
  "/>
<polyline clip-path="url(#clip680)" style="stroke:#000000; stroke-linecap:butt; stroke-linejoin:round; stroke-width:4; stroke-opacity:1; fill:none" points="
  222.501,557.981 248.064,557.981 
  "/>
<polyline clip-path="url(#clip680)" style="stroke:#000000; stroke-linecap:butt; stroke-linejoin:round; stroke-width:4; stroke-opacity:1; fill:none" points="
  222.501,292.814 248.064,292.814 
  "/>
<path clip-path="url(#clip680)" d="M50.9921 1353.93 L80.6679 1353.93 L80.6679 1357.87 L50.9921 1357.87 L50.9921 1353.93 Z" fill="#000000" fill-rule="evenodd" fill-opacity="1" /><path clip-path="url(#clip680)" d="M100.76 1339.28 Q97.1493 1339.28 95.3206 1342.85 Q93.515 1346.39 93.515 1353.52 Q93.515 1360.62 95.3206 1364.19 Q97.1493 1367.73 100.76 1367.73 Q104.395 1367.73 106.2 1364.19 Q108.029 1360.62 108.029 1353.52 Q108.029 1346.39 106.2 1342.85 Q104.395 1339.28 100.76 1339.28 M100.76 1335.58 Q106.571 1335.58 109.626 1340.18 Q112.705 1344.77 112.705 1353.52 Q112.705 1362.24 109.626 1366.85 Q106.571 1371.43 100.76 1371.43 Q94.9502 1371.43 91.8715 1366.85 Q88.816 1362.24 88.816 1353.52 Q88.816 1344.77 91.8715 1340.18 Q94.9502 1335.58 100.76 1335.58 Z" fill="#000000" fill-rule="evenodd" fill-opacity="1" /><path clip-path="url(#clip680)" d="M120.922 1364.88 L125.807 1364.88 L125.807 1370.76 L120.922 1370.76 L120.922 1364.88 Z" fill="#000000" fill-rule="evenodd" fill-opacity="1" /><path clip-path="url(#clip680)" d="M145.992 1339.28 Q142.381 1339.28 140.552 1342.85 Q138.746 1346.39 138.746 1353.52 Q138.746 1360.62 140.552 1364.19 Q142.381 1367.73 145.992 1367.73 Q149.626 1367.73 151.431 1364.19 Q153.26 1360.62 153.26 1353.52 Q153.26 1346.39 151.431 1342.85 Q149.626 1339.28 145.992 1339.28 M145.992 1335.58 Q151.802 1335.58 154.857 1340.18 Q157.936 1344.77 157.936 1353.52 Q157.936 1362.24 154.857 1366.85 Q151.802 1371.43 145.992 1371.43 Q140.181 1371.43 137.103 1366.85 Q134.047 1362.24 134.047 1353.52 Q134.047 1344.77 137.103 1340.18 Q140.181 1335.58 145.992 1335.58 Z" fill="#000000" fill-rule="evenodd" fill-opacity="1" /><path clip-path="url(#clip680)" d="M170.181 1366.83 L186.501 1366.83 L186.501 1370.76 L164.556 1370.76 L164.556 1366.83 Q167.218 1364.07 171.802 1359.44 Q176.408 1354.79 177.589 1353.45 Q179.834 1350.93 180.714 1349.19 Q181.616 1347.43 181.616 1345.74 Q181.616 1342.99 179.672 1341.25 Q177.751 1339.51 174.649 1339.51 Q172.45 1339.51 169.996 1340.28 Q167.566 1341.04 164.788 1342.59 L164.788 1337.87 Q167.612 1336.74 170.066 1336.16 Q172.519 1335.58 174.556 1335.58 Q179.927 1335.58 183.121 1338.26 Q186.315 1340.95 186.315 1345.44 Q186.315 1347.57 185.505 1349.49 Q184.718 1351.39 182.612 1353.98 Q182.033 1354.65 178.931 1357.87 Q175.829 1361.06 170.181 1366.83 Z" fill="#000000" fill-rule="evenodd" fill-opacity="1" /><path clip-path="url(#clip680)" d="M99.1632 1074.11 Q95.5521 1074.11 93.7234 1077.68 Q91.9178 1081.22 91.9178 1088.35 Q91.9178 1095.46 93.7234 1099.02 Q95.5521 1102.56 99.1632 1102.56 Q102.797 1102.56 104.603 1099.02 Q106.432 1095.46 106.432 1088.35 Q106.432 1081.22 104.603 1077.68 Q102.797 1074.11 99.1632 1074.11 M99.1632 1070.41 Q104.973 1070.41 108.029 1075.02 Q111.108 1079.6 111.108 1088.35 Q111.108 1097.08 108.029 1101.68 Q104.973 1106.27 99.1632 1106.27 Q93.353 1106.27 90.2743 1101.68 Q87.2188 1097.08 87.2188 1088.35 Q87.2188 1079.6 90.2743 1075.02 Q93.353 1070.41 99.1632 1070.41 Z" fill="#000000" fill-rule="evenodd" fill-opacity="1" /><path clip-path="url(#clip680)" d="M119.325 1099.72 L124.209 1099.72 L124.209 1105.6 L119.325 1105.6 L119.325 1099.72 Z" fill="#000000" fill-rule="evenodd" fill-opacity="1" /><path clip-path="url(#clip680)" d="M144.394 1074.11 Q140.783 1074.11 138.955 1077.68 Q137.149 1081.22 137.149 1088.35 Q137.149 1095.46 138.955 1099.02 Q140.783 1102.56 144.394 1102.56 Q148.029 1102.56 149.834 1099.02 Q151.663 1095.46 151.663 1088.35 Q151.663 1081.22 149.834 1077.68 Q148.029 1074.11 144.394 1074.11 M144.394 1070.41 Q150.205 1070.41 153.26 1075.02 Q156.339 1079.6 156.339 1088.35 Q156.339 1097.08 153.26 1101.68 Q150.205 1106.27 144.394 1106.27 Q138.584 1106.27 135.506 1101.68 Q132.45 1097.08 132.45 1088.35 Q132.45 1079.6 135.506 1075.02 Q138.584 1070.41 144.394 1070.41 Z" fill="#000000" fill-rule="evenodd" fill-opacity="1" /><path clip-path="url(#clip680)" d="M174.556 1074.11 Q170.945 1074.11 169.116 1077.68 Q167.311 1081.22 167.311 1088.35 Q167.311 1095.46 169.116 1099.02 Q170.945 1102.56 174.556 1102.56 Q178.191 1102.56 179.996 1099.02 Q181.825 1095.46 181.825 1088.35 Q181.825 1081.22 179.996 1077.68 Q178.191 1074.11 174.556 1074.11 M174.556 1070.41 Q180.366 1070.41 183.422 1075.02 Q186.501 1079.6 186.501 1088.35 Q186.501 1097.08 183.422 1101.68 Q180.366 1106.27 174.556 1106.27 Q168.746 1106.27 165.667 1101.68 Q162.612 1097.08 162.612 1088.35 Q162.612 1079.6 165.667 1075.02 Q168.746 1070.41 174.556 1070.41 Z" fill="#000000" fill-rule="evenodd" fill-opacity="1" /><path clip-path="url(#clip680)" d="M100.76 808.947 Q97.1493 808.947 95.3206 812.512 Q93.515 816.054 93.515 823.183 Q93.515 830.29 95.3206 833.855 Q97.1493 837.396 100.76 837.396 Q104.395 837.396 106.2 833.855 Q108.029 830.29 108.029 823.183 Q108.029 816.054 106.2 812.512 Q104.395 808.947 100.76 808.947 M100.76 805.244 Q106.571 805.244 109.626 809.85 Q112.705 814.433 112.705 823.183 Q112.705 831.91 109.626 836.517 Q106.571 841.1 100.76 841.1 Q94.9502 841.1 91.8715 836.517 Q88.816 831.91 88.816 823.183 Q88.816 814.433 91.8715 809.85 Q94.9502 805.244 100.76 805.244 Z" fill="#000000" fill-rule="evenodd" fill-opacity="1" /><path clip-path="url(#clip680)" d="M120.922 834.549 L125.807 834.549 L125.807 840.429 L120.922 840.429 L120.922 834.549 Z" fill="#000000" fill-rule="evenodd" fill-opacity="1" /><path clip-path="url(#clip680)" d="M145.992 808.947 Q142.381 808.947 140.552 812.512 Q138.746 816.054 138.746 823.183 Q138.746 830.29 140.552 833.855 Q142.381 837.396 145.992 837.396 Q149.626 837.396 151.431 833.855 Q153.26 830.29 153.26 823.183 Q153.26 816.054 151.431 812.512 Q149.626 808.947 145.992 808.947 M145.992 805.244 Q151.802 805.244 154.857 809.85 Q157.936 814.433 157.936 823.183 Q157.936 831.91 154.857 836.517 Q151.802 841.1 145.992 841.1 Q140.181 841.1 137.103 836.517 Q134.047 831.91 134.047 823.183 Q134.047 814.433 137.103 809.85 Q140.181 805.244 145.992 805.244 Z" fill="#000000" fill-rule="evenodd" fill-opacity="1" /><path clip-path="url(#clip680)" d="M170.181 836.493 L186.501 836.493 L186.501 840.429 L164.556 840.429 L164.556 836.493 Q167.218 833.739 171.802 829.109 Q176.408 824.456 177.589 823.114 Q179.834 820.591 180.714 818.855 Q181.616 817.095 181.616 815.406 Q181.616 812.651 179.672 810.915 Q177.751 809.179 174.649 809.179 Q172.45 809.179 169.996 809.943 Q167.566 810.707 164.788 812.257 L164.788 807.535 Q167.612 806.401 170.066 805.822 Q172.519 805.244 174.556 805.244 Q179.927 805.244 183.121 807.929 Q186.315 810.614 186.315 815.105 Q186.315 817.234 185.505 819.156 Q184.718 821.054 182.612 823.646 Q182.033 824.318 178.931 827.535 Q175.829 830.73 170.181 836.493 Z" fill="#000000" fill-rule="evenodd" fill-opacity="1" /><path clip-path="url(#clip680)" d="M98.6771 543.78 Q95.066 543.78 93.2373 547.345 Q91.4317 550.887 91.4317 558.016 Q91.4317 565.123 93.2373 568.687 Q95.066 572.229 98.6771 572.229 Q102.311 572.229 104.117 568.687 Q105.946 565.123 105.946 558.016 Q105.946 550.887 104.117 547.345 Q102.311 543.78 98.6771 543.78 M98.6771 540.076 Q104.487 540.076 107.543 544.683 Q110.621 549.266 110.621 558.016 Q110.621 566.743 107.543 571.349 Q104.487 575.933 98.6771 575.933 Q92.8669 575.933 89.7882 571.349 Q86.7327 566.743 86.7327 558.016 Q86.7327 549.266 89.7882 544.683 Q92.8669 540.076 98.6771 540.076 Z" fill="#000000" fill-rule="evenodd" fill-opacity="1" /><path clip-path="url(#clip680)" d="M118.839 569.382 L123.723 569.382 L123.723 575.261 L118.839 575.261 L118.839 569.382 Z" fill="#000000" fill-rule="evenodd" fill-opacity="1" /><path clip-path="url(#clip680)" d="M143.908 543.78 Q140.297 543.78 138.469 547.345 Q136.663 550.887 136.663 558.016 Q136.663 565.123 138.469 568.687 Q140.297 572.229 143.908 572.229 Q147.543 572.229 149.348 568.687 Q151.177 565.123 151.177 558.016 Q151.177 550.887 149.348 547.345 Q147.543 543.78 143.908 543.78 M143.908 540.076 Q149.718 540.076 152.774 544.683 Q155.853 549.266 155.853 558.016 Q155.853 566.743 152.774 571.349 Q149.718 575.933 143.908 575.933 Q138.098 575.933 135.019 571.349 Q131.964 566.743 131.964 558.016 Q131.964 549.266 135.019 544.683 Q138.098 540.076 143.908 540.076 Z" fill="#000000" fill-rule="evenodd" fill-opacity="1" /><path clip-path="url(#clip680)" d="M176.917 544.776 L165.112 563.225 L176.917 563.225 L176.917 544.776 M175.691 540.701 L181.57 540.701 L181.57 563.225 L186.501 563.225 L186.501 567.113 L181.57 567.113 L181.57 575.261 L176.917 575.261 L176.917 567.113 L161.316 567.113 L161.316 562.6 L175.691 540.701 Z" fill="#000000" fill-rule="evenodd" fill-opacity="1" /><path clip-path="url(#clip680)" d="M99.0011 278.613 Q95.39 278.613 93.5613 282.178 Q91.7558 285.719 91.7558 292.849 Q91.7558 299.956 93.5613 303.52 Q95.39 307.062 99.0011 307.062 Q102.635 307.062 104.441 303.52 Q106.27 299.956 106.27 292.849 Q106.27 285.719 104.441 282.178 Q102.635 278.613 99.0011 278.613 M99.0011 274.909 Q104.811 274.909 107.867 279.516 Q110.946 284.099 110.946 292.849 Q110.946 301.576 107.867 306.182 Q104.811 310.766 99.0011 310.766 Q93.191 310.766 90.1123 306.182 Q87.0567 301.576 87.0567 292.849 Q87.0567 284.099 90.1123 279.516 Q93.191 274.909 99.0011 274.909 Z" fill="#000000" fill-rule="evenodd" fill-opacity="1" /><path clip-path="url(#clip680)" d="M119.163 304.215 L124.047 304.215 L124.047 310.094 L119.163 310.094 L119.163 304.215 Z" fill="#000000" fill-rule="evenodd" fill-opacity="1" /><path clip-path="url(#clip680)" d="M144.232 278.613 Q140.621 278.613 138.793 282.178 Q136.987 285.719 136.987 292.849 Q136.987 299.956 138.793 303.52 Q140.621 307.062 144.232 307.062 Q147.867 307.062 149.672 303.52 Q151.501 299.956 151.501 292.849 Q151.501 285.719 149.672 282.178 Q147.867 278.613 144.232 278.613 M144.232 274.909 Q150.043 274.909 153.098 279.516 Q156.177 284.099 156.177 292.849 Q156.177 301.576 153.098 306.182 Q150.043 310.766 144.232 310.766 Q138.422 310.766 135.344 306.182 Q132.288 301.576 132.288 292.849 Q132.288 284.099 135.344 279.516 Q138.422 274.909 144.232 274.909 Z" fill="#000000" fill-rule="evenodd" fill-opacity="1" /><path clip-path="url(#clip680)" d="M174.973 290.951 Q171.825 290.951 169.973 293.104 Q168.144 295.256 168.144 299.006 Q168.144 302.733 169.973 304.909 Q171.825 307.062 174.973 307.062 Q178.121 307.062 179.95 304.909 Q181.802 302.733 181.802 299.006 Q181.802 295.256 179.95 293.104 Q178.121 290.951 174.973 290.951 M184.255 276.298 L184.255 280.557 Q182.496 279.724 180.691 279.284 Q178.908 278.845 177.149 278.845 Q172.519 278.845 170.066 281.969 Q167.635 285.094 167.288 291.414 Q168.654 289.4 170.714 288.335 Q172.774 287.247 175.251 287.247 Q180.459 287.247 183.468 290.419 Q186.501 293.567 186.501 299.006 Q186.501 304.33 183.353 307.548 Q180.204 310.766 174.973 310.766 Q168.978 310.766 165.806 306.182 Q162.635 301.576 162.635 292.849 Q162.635 284.655 166.524 279.794 Q170.413 274.909 176.964 274.909 Q178.723 274.909 180.505 275.257 Q182.311 275.604 184.255 276.298 Z" fill="#000000" fill-rule="evenodd" fill-opacity="1" /><polyline clip-path="url(#clip682)" style="stroke:#009af9; stroke-linecap:butt; stroke-linejoin:round; stroke-width:4; stroke-opacity:1; fill:none" points="
  282.791,553.514 299.679,1188.15 316.567,1012.92 333.455,822.333 350.343,87.9763 367.231,715.218 384.119,1138.1 401.007,672.704 417.895,1017.4 434.783,1030.47 
  451.671,1072.49 468.559,677.282 485.447,996.851 502.335,725.042 519.223,983.701 536.111,322.085 552.999,851.044 569.887,1273.84 586.775,1070.29 603.663,776.644 
  620.551,922.91 637.439,1151.67 654.327,901.352 671.215,780.382 688.103,452.375 704.991,431.246 721.88,726.691 738.768,866.746 755.656,593.407 772.544,1172.7 
  789.432,894.051 806.32,622.155 823.208,766.564 840.096,1070.09 856.984,851.536 873.872,460.069 890.76,909.402 907.648,665.456 924.536,369.869 941.424,812.772 
  958.312,731.842 975.2,908.569 992.088,1174.95 1008.98,1163.24 1025.86,1170.83 1042.75,902.225 1059.64,582.212 1076.53,1055.61 1093.42,1194.02 1110.3,392.422 
  1127.19,887.148 1144.08,1147.99 1160.97,1011.24 1177.86,1159.31 1194.74,1202.15 1211.63,933.231 1228.52,947.822 1245.41,677.608 1262.3,1040.53 1279.18,1205.77 
  1296.07,852.792 1312.96,1077.31 1329.85,486.844 1346.74,665.462 1363.62,515.475 1380.51,1176.89 1397.4,997.08 1414.29,1095.22 1431.18,1059.83 1448.06,1085.77 
  1464.95,1124.76 1481.84,780.225 1498.73,1211.14 1515.62,1445.72 1532.5,1282.38 1549.39,736.336 1566.28,964.78 1583.17,863.819 1600.06,942.806 1616.94,1218.63 
  1633.83,1288.08 1650.72,853.535 1667.61,669.919 1684.5,1418.89 1701.38,1306.45 1718.27,1093.14 1735.16,846.534 1752.05,784.625 1768.94,731.047 1785.82,1055.39 
  1802.71,1291.54 1819.6,1167.41 1836.49,779.233 1853.38,783.064 1870.27,1130.06 1887.15,1126.65 1904.04,718.918 1920.93,1228.67 1937.82,1086.1 1954.71,1137 
  1971.59,941.478 1988.48,782.121 2005.37,495.067 2022.26,1022.68 2039.15,890.813 2056.03,923.111 2072.92,1151.06 2089.81,1026.61 2106.7,745.961 2123.59,1148.26 
  2140.47,808.167 2157.36,962.393 2174.25,979.859 2191.14,950.477 2208.03,764.009 2224.91,1038.55 2241.8,1219.47 2258.69,414.001 2275.58,1083.64 2292.47,1021.23 
  
  "/>
<path clip-path="url(#clip680)" d="
M1992.62 198.898 L2281.75 198.898 L2281.75 95.2176 L1992.62 95.2176  Z
  " fill="#ffffff" fill-rule="evenodd" fill-opacity="1"/>
<polyline clip-path="url(#clip680)" style="stroke:#000000; stroke-linecap:butt; stroke-linejoin:round; stroke-width:4; stroke-opacity:1; fill:none" points="
  1992.62,198.898 2281.75,198.898 2281.75,95.2176 1992.62,95.2176 1992.62,198.898 
  "/>
<polyline clip-path="url(#clip680)" style="stroke:#009af9; stroke-linecap:butt; stroke-linejoin:round; stroke-width:4; stroke-opacity:1; fill:none" points="
  2016.29,147.058 2158.31,147.058 
  "/>
<path clip-path="url(#clip680)" d="M2195.82 166.745 Q2194.02 171.375 2192.3 172.787 Q2190.59 174.199 2187.72 174.199 L2184.32 174.199 L2184.32 170.634 L2186.82 170.634 Q2188.58 170.634 2189.55 169.8 Q2190.52 168.967 2191.7 165.865 L2192.46 163.921 L2181.98 138.412 L2186.49 138.412 L2194.59 158.689 L2202.7 138.412 L2207.21 138.412 L2195.82 166.745 Z" fill="#000000" fill-rule="evenodd" fill-opacity="1" /><path clip-path="url(#clip680)" d="M2214.5 160.402 L2222.14 160.402 L2222.14 134.037 L2213.83 135.703 L2213.83 131.444 L2222.09 129.778 L2226.77 129.778 L2226.77 160.402 L2234.41 160.402 L2234.41 164.338 L2214.5 164.338 L2214.5 160.402 Z" fill="#000000" fill-rule="evenodd" fill-opacity="1" /></svg>
