<?xml version="1.0" encoding="utf-8"?>
<svg xmlns="http://www.w3.org/2000/svg" xmlns:xlink="http://www.w3.org/1999/xlink" width="600" height="400" viewBox="0 0 2400 1600">
<defs>
  <clipPath id="clip640">
    <rect x="0" y="0" width="2400" height="1600"/>
  </clipPath>
</defs>
<path clip-path="url(#clip640)" d="
M0 1600 L2400 1600 L2400 0 L0 0  Z
  " fill="#ffffff" fill-rule="evenodd" fill-opacity="1"/>
<defs>
  <clipPath id="clip641">
    <rect x="480" y="0" width="1681" height="1600"/>
  </clipPath>
</defs>
<path clip-path="url(#clip640)" d="
M202.177 1486.45 L2352.76 1486.45 L2352.76 47.2441 L202.177 47.2441  Z
  " fill="#ffffff" fill-rule="evenodd" fill-opacity="1"/>
<defs>
  <clipPath id="clip642">
    <rect x="202" y="47" width="2152" height="1440"/>
  </clipPath>
</defs>
<polyline clip-path="url(#clip642)" style="stroke:#000000; stroke-linecap:butt; stroke-linejoin:round; stroke-width:2; stroke-opacity:0.1; fill:none" points="
  245.993,1486.45 245.993,47.2441 
  "/>
<polyline clip-path="url(#clip642)" style="stroke:#000000; stroke-linecap:butt; stroke-linejoin:round; stroke-width:2; stroke-opacity:0.1; fill:none" points="
  672.222,1486.45 672.222,47.2441 
  "/>
<polyline clip-path="url(#clip642)" style="stroke:#000000; stroke-linecap:butt; stroke-linejoin:round; stroke-width:2; stroke-opacity:0.1; fill:none" points="
  1098.45,1486.45 1098.45,47.2441 
  "/>
<polyline clip-path="url(#clip642)" style="stroke:#000000; stroke-linecap:butt; stroke-linejoin:round; stroke-width:2; stroke-opacity:0.1; fill:none" points="
  1524.68,1486.45 1524.68,47.2441 
  "/>
<polyline clip-path="url(#clip642)" style="stroke:#000000; stroke-linecap:butt; stroke-linejoin:round; stroke-width:2; stroke-opacity:0.1; fill:none" points="
  1950.91,1486.45 1950.91,47.2441 
  "/>
<polyline clip-path="url(#clip640)" style="stroke:#000000; stroke-linecap:butt; stroke-linejoin:round; stroke-width:4; stroke-opacity:1; fill:none" points="
  202.177,1486.45 2352.76,1486.45 
  "/>
<polyline clip-path="url(#clip640)" style="stroke:#000000; stroke-linecap:butt; stroke-linejoin:round; stroke-width:4; stroke-opacity:1; fill:none" points="
  245.993,1486.45 245.993,1469.18 
  "/>
<polyline clip-path="url(#clip640)" style="stroke:#000000; stroke-linecap:butt; stroke-linejoin:round; stroke-width:4; stroke-opacity:1; fill:none" points="
  672.222,1486.45 672.222,1469.18 
  "/>
<polyline clip-path="url(#clip640)" style="stroke:#000000; stroke-linecap:butt; stroke-linejoin:round; stroke-width:4; stroke-opacity:1; fill:none" points="
  1098.45,1486.45 1098.45,1469.18 
  "/>
<polyline clip-path="url(#clip640)" style="stroke:#000000; stroke-linecap:butt; stroke-linejoin:round; stroke-width:4; stroke-opacity:1; fill:none" points="
  1524.68,1486.45 1524.68,1469.18 
  "/>
<polyline clip-path="url(#clip640)" style="stroke:#000000; stroke-linecap:butt; stroke-linejoin:round; stroke-width:4; stroke-opacity:1; fill:none" points="
  1950.91,1486.45 1950.91,1469.18 
  "/>
<path clip-path="url(#clip640)" d="M245.993 1515.64 Q242.382 1515.64 240.553 1519.2 Q238.748 1522.75 238.748 1529.87 Q238.748 1536.98 240.553 1540.55 Q242.382 1544.09 245.993 1544.09 Q249.627 1544.09 251.433 1540.55 Q253.261 1536.98 253.261 1529.87 Q253.261 1522.75 251.433 1519.2 Q249.627 1515.64 245.993 1515.64 M245.993 1511.93 Q251.803 1511.93 254.859 1516.54 Q257.937 1521.12 257.937 1529.87 Q257.937 1538.6 254.859 1543.21 Q251.803 1547.79 245.993 1547.79 Q240.183 1547.79 237.104 1543.21 Q234.049 1538.6 234.049 1529.87 Q234.049 1521.12 237.104 1516.54 Q240.183 1511.93 245.993 1511.93 Z" fill="#000000" fill-rule="evenodd" fill-opacity="1" /><path clip-path="url(#clip640)" d="M651.493 1543.18 L667.812 1543.18 L667.812 1547.12 L645.868 1547.12 L645.868 1543.18 Q648.53 1540.43 653.113 1535.8 Q657.719 1531.15 658.9 1529.81 Q661.145 1527.28 662.025 1525.55 Q662.928 1523.79 662.928 1522.1 Q662.928 1519.34 660.983 1517.61 Q659.062 1515.87 655.96 1515.87 Q653.761 1515.87 651.307 1516.63 Q648.877 1517.4 646.099 1518.95 L646.099 1514.23 Q648.923 1513.09 651.377 1512.51 Q653.831 1511.93 655.868 1511.93 Q661.238 1511.93 664.432 1514.62 Q667.627 1517.31 667.627 1521.8 Q667.627 1523.93 666.817 1525.85 Q666.03 1527.74 663.923 1530.34 Q663.344 1531.01 660.243 1534.23 Q657.141 1537.42 651.493 1543.18 Z" fill="#000000" fill-rule="evenodd" fill-opacity="1" /><path clip-path="url(#clip640)" d="M677.673 1512.56 L696.029 1512.56 L696.029 1516.5 L681.955 1516.5 L681.955 1524.97 Q682.974 1524.62 683.992 1524.46 Q685.011 1524.27 686.029 1524.27 Q691.816 1524.27 695.196 1527.44 Q698.576 1530.62 698.576 1536.03 Q698.576 1541.61 695.103 1544.71 Q691.631 1547.79 685.312 1547.79 Q683.136 1547.79 680.867 1547.42 Q678.622 1547.05 676.215 1546.31 L676.215 1541.61 Q678.298 1542.74 680.52 1543.3 Q682.742 1543.86 685.219 1543.86 Q689.224 1543.86 691.562 1541.75 Q693.9 1539.64 693.9 1536.03 Q693.9 1532.42 691.562 1530.31 Q689.224 1528.21 685.219 1528.21 Q683.344 1528.21 681.469 1528.62 Q679.617 1529.04 677.673 1529.92 L677.673 1512.56 Z" fill="#000000" fill-rule="evenodd" fill-opacity="1" /><path clip-path="url(#clip640)" d="M1073.15 1512.56 L1091.51 1512.56 L1091.51 1516.5 L1077.43 1516.5 L1077.43 1524.97 Q1078.45 1524.62 1079.47 1524.46 Q1080.49 1524.27 1081.51 1524.27 Q1087.29 1524.27 1090.67 1527.44 Q1094.05 1530.62 1094.05 1536.03 Q1094.05 1541.61 1090.58 1544.71 Q1087.11 1547.79 1080.79 1547.79 Q1078.61 1547.79 1076.34 1547.42 Q1074.1 1547.05 1071.69 1546.31 L1071.69 1541.61 Q1073.77 1542.74 1076 1543.3 Q1078.22 1543.86 1080.7 1543.86 Q1084.7 1543.86 1087.04 1541.75 Q1089.38 1539.64 1089.38 1536.03 Q1089.38 1532.42 1087.04 1530.31 Q1084.7 1528.21 1080.7 1528.21 Q1078.82 1528.21 1076.95 1528.62 Q1075.09 1529.04 1073.15 1529.92 L1073.15 1512.56 Z" fill="#000000" fill-rule="evenodd" fill-opacity="1" /><path clip-path="url(#clip640)" d="M1113.27 1515.64 Q1109.65 1515.64 1107.83 1519.2 Q1106.02 1522.75 1106.02 1529.87 Q1106.02 1536.98 1107.83 1540.55 Q1109.65 1544.09 1113.27 1544.09 Q1116.9 1544.09 1118.7 1540.55 Q1120.53 1536.98 1120.53 1529.87 Q1120.53 1522.75 1118.7 1519.2 Q1116.9 1515.64 1113.27 1515.64 M1113.27 1511.93 Q1119.08 1511.93 1122.13 1516.54 Q1125.21 1521.12 1125.21 1529.87 Q1125.21 1538.6 1122.13 1543.21 Q1119.08 1547.79 1113.27 1547.79 Q1107.45 1547.79 1104.38 1543.21 Q1101.32 1538.6 1101.32 1529.87 Q1101.32 1521.12 1104.38 1516.54 Q1107.45 1511.93 1113.27 1511.93 Z" fill="#000000" fill-rule="evenodd" fill-opacity="1" /><path clip-path="url(#clip640)" d="M1498.53 1512.56 L1520.76 1512.56 L1520.76 1514.55 L1508.21 1547.12 L1503.32 1547.12 L1515.13 1516.5 L1498.53 1516.5 L1498.53 1512.56 Z" fill="#000000" fill-rule="evenodd" fill-opacity="1" /><path clip-path="url(#clip640)" d="M1529.92 1512.56 L1548.28 1512.56 L1548.28 1516.5 L1534.2 1516.5 L1534.2 1524.97 Q1535.22 1524.62 1536.24 1524.46 Q1537.26 1524.27 1538.28 1524.27 Q1544.07 1524.27 1547.44 1527.44 Q1550.82 1530.62 1550.82 1536.03 Q1550.82 1541.61 1547.35 1544.71 Q1543.88 1547.79 1537.56 1547.79 Q1535.38 1547.79 1533.12 1547.42 Q1530.87 1547.05 1528.46 1546.31 L1528.46 1541.61 Q1530.55 1542.74 1532.77 1543.3 Q1534.99 1543.86 1537.47 1543.86 Q1541.47 1543.86 1543.81 1541.75 Q1546.15 1539.64 1546.15 1536.03 Q1546.15 1532.42 1543.81 1530.31 Q1541.47 1528.21 1537.47 1528.21 Q1535.59 1528.21 1533.72 1528.62 Q1531.87 1529.04 1529.92 1529.92 L1529.92 1512.56 Z" fill="#000000" fill-rule="evenodd" fill-opacity="1" /><path clip-path="url(#clip640)" d="M1910.51 1543.18 L1918.15 1543.18 L1918.15 1516.82 L1909.84 1518.49 L1909.84 1514.23 L1918.11 1512.56 L1922.78 1512.56 L1922.78 1543.18 L1930.42 1543.18 L1930.42 1547.12 L1910.51 1547.12 L1910.51 1543.18 Z" fill="#000000" fill-rule="evenodd" fill-opacity="1" /><path clip-path="url(#clip640)" d="M1949.87 1515.64 Q1946.25 1515.64 1944.43 1519.2 Q1942.62 1522.75 1942.62 1529.87 Q1942.62 1536.98 1944.43 1540.55 Q1946.25 1544.09 1949.87 1544.09 Q1953.5 1544.09 1955.31 1540.55 Q1957.13 1536.98 1957.13 1529.87 Q1957.13 1522.75 1955.31 1519.2 Q1953.5 1515.64 1949.87 1515.64 M1949.87 1511.93 Q1955.68 1511.93 1958.73 1516.54 Q1961.81 1521.12 1961.81 1529.87 Q1961.81 1538.6 1958.73 1543.21 Q1955.68 1547.79 1949.87 1547.79 Q1944.06 1547.79 1940.98 1543.21 Q1937.92 1538.6 1937.92 1529.87 Q1937.92 1521.12 1940.98 1516.54 Q1944.06 1511.93 1949.87 1511.93 Z" fill="#000000" fill-rule="evenodd" fill-opacity="1" /><path clip-path="url(#clip640)" d="M1980.03 1515.64 Q1976.42 1515.64 1974.59 1519.2 Q1972.78 1522.75 1972.78 1529.87 Q1972.78 1536.98 1974.59 1540.55 Q1976.42 1544.09 1980.03 1544.09 Q1983.66 1544.09 1985.47 1540.55 Q1987.3 1536.98 1987.3 1529.87 Q1987.3 1522.75 1985.47 1519.2 Q1983.66 1515.64 1980.03 1515.64 M1980.03 1511.93 Q1985.84 1511.93 1988.89 1516.54 Q1991.97 1521.12 1991.97 1529.87 Q1991.97 1538.6 1988.89 1543.21 Q1985.84 1547.79 1980.03 1547.79 Q1974.22 1547.79 1971.14 1543.21 Q1968.08 1538.6 1968.08 1529.87 Q1968.08 1521.12 1971.14 1516.54 Q1974.22 1511.93 1980.03 1511.93 Z" fill="#000000" fill-rule="evenodd" fill-opacity="1" /><polyline clip-path="url(#clip642)" style="stroke:#000000; stroke-linecap:butt; stroke-linejoin:round; stroke-width:2; stroke-opacity:0.1; fill:none" points="
  202.177,1376.27 2352.76,1376.27 
  "/>
<polyline clip-path="url(#clip642)" style="stroke:#000000; stroke-linecap:butt; stroke-linejoin:round; stroke-width:2; stroke-opacity:0.1; fill:none" points="
  202.177,1107.09 2352.76,1107.09 
  "/>
<polyline clip-path="url(#clip642)" style="stroke:#000000; stroke-linecap:butt; stroke-linejoin:round; stroke-width:2; stroke-opacity:0.1; fill:none" points="
  202.177,837.909 2352.76,837.909 
  "/>
<polyline clip-path="url(#clip642)" style="stroke:#000000; stroke-linecap:butt; stroke-linejoin:round; stroke-width:2; stroke-opacity:0.1; fill:none" points="
  202.177,568.73 2352.76,568.73 
  "/>
<polyline clip-path="url(#clip642)" style="stroke:#000000; stroke-linecap:butt; stroke-linejoin:round; stroke-width:2; stroke-opacity:0.1; fill:none" points="
  202.177,299.551 2352.76,299.551 
  "/>
<polyline clip-path="url(#clip640)" style="stroke:#000000; stroke-linecap:butt; stroke-linejoin:round; stroke-width:4; stroke-opacity:1; fill:none" points="
  202.177,1486.45 202.177,47.2441 
  "/>
<polyline clip-path="url(#clip640)" style="stroke:#000000; stroke-linecap:butt; stroke-linejoin:round; stroke-width:4; stroke-opacity:1; fill:none" points="
  202.177,1376.27 227.984,1376.27 
  "/>
<polyline clip-path="url(#clip640)" style="stroke:#000000; stroke-linecap:butt; stroke-linejoin:round; stroke-width:4; stroke-opacity:1; fill:none" points="
  202.177,1107.09 227.984,1107.09 
  "/>
<polyline clip-path="url(#clip640)" style="stroke:#000000; stroke-linecap:butt; stroke-linejoin:round; stroke-width:4; stroke-opacity:1; fill:none" points="
  202.177,837.909 227.984,837.909 
  "/>
<polyline clip-path="url(#clip640)" style="stroke:#000000; stroke-linecap:butt; stroke-linejoin:round; stroke-width:4; stroke-opacity:1; fill:none" points="
  202.177,568.73 227.984,568.73 
  "/>
<polyline clip-path="url(#clip640)" style="stroke:#000000; stroke-linecap:butt; stroke-linejoin:round; stroke-width:4; stroke-opacity:1; fill:none" points="
  202.177,299.551 227.984,299.551 
  "/>
<path clip-path="url(#clip640)" d="M57.7745 1389.61 L74.0939 1389.61 L74.0939 1393.55 L52.1495 1393.55 L52.1495 1389.61 Q54.8115 1386.86 59.3949 1382.23 Q64.0013 1377.58 65.1819 1376.23 Q67.4272 1373.71 68.3068 1371.97 Q69.2096 1370.21 69.2096 1368.52 Q69.2096 1365.77 67.2652 1364.03 Q65.3439 1362.3 62.2421 1362.3 Q60.043 1362.3 57.5893 1363.06 Q55.1588 1363.83 52.381 1365.38 L52.381 1360.65 Q55.2051 1359.52 57.6588 1358.94 Q60.1124 1358.36 62.1495 1358.36 Q67.5198 1358.36 70.7142 1361.05 Q73.9087 1363.73 73.9087 1368.22 Q73.9087 1370.35 73.0985 1372.27 Q72.3115 1374.17 70.205 1376.77 Q69.6263 1377.44 66.5245 1380.65 Q63.4226 1383.85 57.7745 1389.61 Z" fill="#000000" fill-rule="evenodd" fill-opacity="1" /><path clip-path="url(#clip640)" d="M83.9549 1358.99 L102.311 1358.99 L102.311 1362.92 L88.2373 1362.92 L88.2373 1371.39 Q89.2558 1371.05 90.2743 1370.89 Q91.2928 1370.7 92.3113 1370.7 Q98.0984 1370.7 101.478 1373.87 Q104.858 1377.04 104.858 1382.46 Q104.858 1388.04 101.385 1391.14 Q97.9132 1394.22 91.5938 1394.22 Q89.4178 1394.22 87.1493 1393.85 Q84.904 1393.48 82.4966 1392.74 L82.4966 1388.04 Q84.5799 1389.17 86.8021 1389.73 Q89.0243 1390.28 91.5012 1390.28 Q95.5058 1390.28 97.8437 1388.18 Q100.182 1386.07 100.182 1382.46 Q100.182 1378.85 97.8437 1376.74 Q95.5058 1374.64 91.5012 1374.64 Q89.6262 1374.64 87.7512 1375.05 Q85.8993 1375.47 83.9549 1376.35 L83.9549 1358.99 Z" fill="#000000" fill-rule="evenodd" fill-opacity="1" /><path clip-path="url(#clip640)" d="M124.07 1362.07 Q120.459 1362.07 118.631 1365.63 Q116.825 1369.17 116.825 1376.3 Q116.825 1383.41 118.631 1386.97 Q120.459 1390.52 124.07 1390.52 Q127.705 1390.52 129.51 1386.97 Q131.339 1383.41 131.339 1376.3 Q131.339 1369.17 129.51 1365.63 Q127.705 1362.07 124.07 1362.07 M124.07 1358.36 Q129.881 1358.36 132.936 1362.97 Q136.015 1367.55 136.015 1376.3 Q136.015 1385.03 132.936 1389.64 Q129.881 1394.22 124.07 1394.22 Q118.26 1394.22 115.182 1389.64 Q112.126 1385.03 112.126 1376.3 Q112.126 1367.55 115.182 1362.97 Q118.26 1358.36 124.07 1358.36 Z" fill="#000000" fill-rule="evenodd" fill-opacity="1" /><path clip-path="url(#clip640)" d="M154.232 1362.07 Q150.621 1362.07 148.793 1365.63 Q146.987 1369.17 146.987 1376.3 Q146.987 1383.41 148.793 1386.97 Q150.621 1390.52 154.232 1390.52 Q157.867 1390.52 159.672 1386.97 Q161.501 1383.41 161.501 1376.3 Q161.501 1369.17 159.672 1365.63 Q157.867 1362.07 154.232 1362.07 M154.232 1358.36 Q160.042 1358.36 163.098 1362.97 Q166.177 1367.55 166.177 1376.3 Q166.177 1385.03 163.098 1389.64 Q160.042 1394.22 154.232 1394.22 Q148.422 1394.22 145.343 1389.64 Q142.288 1385.03 142.288 1376.3 Q142.288 1367.55 145.343 1362.97 Q148.422 1358.36 154.232 1358.36 Z" fill="#000000" fill-rule="evenodd" fill-opacity="1" /><path clip-path="url(#clip640)" d="M67.9133 1105.73 Q71.2698 1106.45 73.1448 1108.72 Q75.0429 1110.99 75.0429 1114.32 Q75.0429 1119.44 71.5244 1122.24 Q68.0059 1125.04 61.5245 1125.04 Q59.3486 1125.04 57.0338 1124.6 Q54.7421 1124.18 52.2884 1123.33 L52.2884 1118.81 Q54.2328 1119.95 56.5477 1120.53 Q58.8625 1121.1 61.3856 1121.1 Q65.7837 1121.1 68.0754 1119.37 Q70.3902 1117.63 70.3902 1114.32 Q70.3902 1111.27 68.2374 1109.55 Q66.1078 1107.82 62.2884 1107.82 L58.2606 1107.82 L58.2606 1103.97 L62.4735 1103.97 Q65.9226 1103.97 67.7513 1102.61 Q69.58 1101.22 69.58 1098.63 Q69.58 1095.97 67.6819 1094.55 Q65.8069 1093.12 62.2884 1093.12 Q60.3671 1093.12 58.168 1093.54 Q55.969 1093.95 53.3301 1094.83 L53.3301 1090.66 Q55.9921 1089.92 58.3069 1089.55 Q60.6449 1089.18 62.705 1089.18 Q68.0291 1089.18 71.1309 1091.61 Q74.2327 1094.02 74.2327 1098.14 Q74.2327 1101.01 72.5892 1103 Q70.9457 1104.97 67.9133 1105.73 Z" fill="#000000" fill-rule="evenodd" fill-opacity="1" /><path clip-path="url(#clip640)" d="M93.9086 1092.89 Q90.2975 1092.89 88.4688 1096.45 Q86.6632 1099.99 86.6632 1107.12 Q86.6632 1114.23 88.4688 1117.79 Q90.2975 1121.34 93.9086 1121.34 Q97.5428 1121.34 99.3483 1117.79 Q101.177 1114.23 101.177 1107.12 Q101.177 1099.99 99.3483 1096.45 Q97.5428 1092.89 93.9086 1092.89 M93.9086 1089.18 Q99.7187 1089.18 102.774 1093.79 Q105.853 1098.37 105.853 1107.12 Q105.853 1115.85 102.774 1120.46 Q99.7187 1125.04 93.9086 1125.04 Q88.0984 1125.04 85.0197 1120.46 Q81.9642 1115.85 81.9642 1107.12 Q81.9642 1098.37 85.0197 1093.79 Q88.0984 1089.18 93.9086 1089.18 Z" fill="#000000" fill-rule="evenodd" fill-opacity="1" /><path clip-path="url(#clip640)" d="M124.07 1092.89 Q120.459 1092.89 118.631 1096.45 Q116.825 1099.99 116.825 1107.12 Q116.825 1114.23 118.631 1117.79 Q120.459 1121.34 124.07 1121.34 Q127.705 1121.34 129.51 1117.79 Q131.339 1114.23 131.339 1107.12 Q131.339 1099.99 129.51 1096.45 Q127.705 1092.89 124.07 1092.89 M124.07 1089.18 Q129.881 1089.18 132.936 1093.79 Q136.015 1098.37 136.015 1107.12 Q136.015 1115.85 132.936 1120.46 Q129.881 1125.04 124.07 1125.04 Q118.26 1125.04 115.182 1120.46 Q112.126 1115.85 112.126 1107.12 Q112.126 1098.37 115.182 1093.79 Q118.26 1089.18 124.07 1089.18 Z" fill="#000000" fill-rule="evenodd" fill-opacity="1" /><path clip-path="url(#clip640)" d="M154.232 1092.89 Q150.621 1092.89 148.793 1096.45 Q146.987 1099.99 146.987 1107.12 Q146.987 1114.23 148.793 1117.79 Q150.621 1121.34 154.232 1121.34 Q157.867 1121.34 159.672 1117.79 Q161.501 1114.23 161.501 1107.12 Q161.501 1099.99 159.672 1096.45 Q157.867 1092.89 154.232 1092.89 M154.232 1089.18 Q160.042 1089.18 163.098 1093.79 Q166.177 1098.37 166.177 1107.12 Q166.177 1115.85 163.098 1120.46 Q160.042 1125.04 154.232 1125.04 Q148.422 1125.04 145.343 1120.46 Q142.288 1115.85 142.288 1107.12 Q142.288 1098.37 145.343 1093.79 Q148.422 1089.18 154.232 1089.18 Z" fill="#000000" fill-rule="evenodd" fill-opacity="1" /><path clip-path="url(#clip640)" d="M67.9133 836.555 Q71.2698 837.273 73.1448 839.541 Q75.0429 841.81 75.0429 845.143 Q75.0429 850.259 71.5244 853.06 Q68.0059 855.861 61.5245 855.861 Q59.3486 855.861 57.0338 855.421 Q54.7421 855.004 52.2884 854.148 L52.2884 849.634 Q54.2328 850.768 56.5477 851.347 Q58.8625 851.925 61.3856 851.925 Q65.7837 851.925 68.0754 850.189 Q70.3902 848.453 70.3902 845.143 Q70.3902 842.087 68.2374 840.375 Q66.1078 838.638 62.2884 838.638 L58.2606 838.638 L58.2606 834.796 L62.4735 834.796 Q65.9226 834.796 67.7513 833.43 Q69.58 832.041 69.58 829.449 Q69.58 826.787 67.6819 825.375 Q65.8069 823.939 62.2884 823.939 Q60.3671 823.939 58.168 824.356 Q55.969 824.773 53.3301 825.652 L53.3301 821.486 Q55.9921 820.745 58.3069 820.375 Q60.6449 820.004 62.705 820.004 Q68.0291 820.004 71.1309 822.435 Q74.2327 824.842 74.2327 828.963 Q74.2327 831.833 72.5892 833.824 Q70.9457 835.791 67.9133 836.555 Z" fill="#000000" fill-rule="evenodd" fill-opacity="1" /><path clip-path="url(#clip640)" d="M83.9549 820.629 L102.311 820.629 L102.311 824.564 L88.2373 824.564 L88.2373 833.037 Q89.2558 832.689 90.2743 832.527 Q91.2928 832.342 92.3113 832.342 Q98.0984 832.342 101.478 835.513 Q104.858 838.685 104.858 844.101 Q104.858 849.68 101.385 852.782 Q97.9132 855.861 91.5938 855.861 Q89.4178 855.861 87.1493 855.49 Q84.904 855.12 82.4966 854.379 L82.4966 849.68 Q84.5799 850.814 86.8021 851.37 Q89.0243 851.925 91.5012 851.925 Q95.5058 851.925 97.8437 849.819 Q100.182 847.712 100.182 844.101 Q100.182 840.49 97.8437 838.384 Q95.5058 836.277 91.5012 836.277 Q89.6262 836.277 87.7512 836.694 Q85.8993 837.111 83.9549 837.99 L83.9549 820.629 Z" fill="#000000" fill-rule="evenodd" fill-opacity="1" /><path clip-path="url(#clip640)" d="M124.07 823.708 Q120.459 823.708 118.631 827.273 Q116.825 830.814 116.825 837.944 Q116.825 845.05 118.631 848.615 Q120.459 852.157 124.07 852.157 Q127.705 852.157 129.51 848.615 Q131.339 845.05 131.339 837.944 Q131.339 830.814 129.51 827.273 Q127.705 823.708 124.07 823.708 M124.07 820.004 Q129.881 820.004 132.936 824.611 Q136.015 829.194 136.015 837.944 Q136.015 846.671 132.936 851.277 Q129.881 855.861 124.07 855.861 Q118.26 855.861 115.182 851.277 Q112.126 846.671 112.126 837.944 Q112.126 829.194 115.182 824.611 Q118.26 820.004 124.07 820.004 Z" fill="#000000" fill-rule="evenodd" fill-opacity="1" /><path clip-path="url(#clip640)" d="M154.232 823.708 Q150.621 823.708 148.793 827.273 Q146.987 830.814 146.987 837.944 Q146.987 845.05 148.793 848.615 Q150.621 852.157 154.232 852.157 Q157.867 852.157 159.672 848.615 Q161.501 845.05 161.501 837.944 Q161.501 830.814 159.672 827.273 Q157.867 823.708 154.232 823.708 M154.232 820.004 Q160.042 820.004 163.098 824.611 Q166.177 829.194 166.177 837.944 Q166.177 846.671 163.098 851.277 Q160.042 855.861 154.232 855.861 Q148.422 855.861 145.343 851.277 Q142.288 846.671 142.288 837.944 Q142.288 829.194 145.343 824.611 Q148.422 820.004 154.232 820.004 Z" fill="#000000" fill-rule="evenodd" fill-opacity="1" /><path clip-path="url(#clip640)" d="M66.5939 555.524 L54.7884 573.973 L66.5939 573.973 L66.5939 555.524 M65.367 551.45 L71.2466 551.45 L71.2466 573.973 L76.1772 573.973 L76.1772 577.862 L71.2466 577.862 L71.2466 586.01 L66.5939 586.01 L66.5939 577.862 L50.9921 577.862 L50.9921 573.348 L65.367 551.45 Z" fill="#000000" fill-rule="evenodd" fill-opacity="1" /><path clip-path="url(#clip640)" d="M93.9086 554.529 Q90.2975 554.529 88.4688 558.094 Q86.6632 561.635 86.6632 568.765 Q86.6632 575.871 88.4688 579.436 Q90.2975 582.978 93.9086 582.978 Q97.5428 582.978 99.3483 579.436 Q101.177 575.871 101.177 568.765 Q101.177 561.635 99.3483 558.094 Q97.5428 554.529 93.9086 554.529 M93.9086 550.825 Q99.7187 550.825 102.774 555.432 Q105.853 560.015 105.853 568.765 Q105.853 577.492 102.774 582.098 Q99.7187 586.681 93.9086 586.681 Q88.0984 586.681 85.0197 582.098 Q81.9642 577.492 81.9642 568.765 Q81.9642 560.015 85.0197 555.432 Q88.0984 550.825 93.9086 550.825 Z" fill="#000000" fill-rule="evenodd" fill-opacity="1" /><path clip-path="url(#clip640)" d="M124.07 554.529 Q120.459 554.529 118.631 558.094 Q116.825 561.635 116.825 568.765 Q116.825 575.871 118.631 579.436 Q120.459 582.978 124.07 582.978 Q127.705 582.978 129.51 579.436 Q131.339 575.871 131.339 568.765 Q131.339 561.635 129.51 558.094 Q127.705 554.529 124.07 554.529 M124.07 550.825 Q129.881 550.825 132.936 555.432 Q136.015 560.015 136.015 568.765 Q136.015 577.492 132.936 582.098 Q129.881 586.681 124.07 586.681 Q118.26 586.681 115.182 582.098 Q112.126 577.492 112.126 568.765 Q112.126 560.015 115.182 555.432 Q118.26 550.825 124.07 550.825 Z" fill="#000000" fill-rule="evenodd" fill-opacity="1" /><path clip-path="url(#clip640)" d="M154.232 554.529 Q150.621 554.529 148.793 558.094 Q146.987 561.635 146.987 568.765 Q146.987 575.871 148.793 579.436 Q150.621 582.978 154.232 582.978 Q157.867 582.978 159.672 579.436 Q161.501 575.871 161.501 568.765 Q161.501 561.635 159.672 558.094 Q157.867 554.529 154.232 554.529 M154.232 550.825 Q160.042 550.825 163.098 555.432 Q166.177 560.015 166.177 568.765 Q166.177 577.492 163.098 582.098 Q160.042 586.681 154.232 586.681 Q148.422 586.681 145.343 582.098 Q142.288 577.492 142.288 568.765 Q142.288 560.015 145.343 555.432 Q148.422 550.825 154.232 550.825 Z" fill="#000000" fill-rule="evenodd" fill-opacity="1" /><path clip-path="url(#clip640)" d="M66.5939 286.345 L54.7884 304.794 L66.5939 304.794 L66.5939 286.345 M65.367 282.271 L71.2466 282.271 L71.2466 304.794 L76.1772 304.794 L76.1772 308.683 L71.2466 308.683 L71.2466 316.831 L66.5939 316.831 L66.5939 308.683 L50.9921 308.683 L50.9921 304.169 L65.367 282.271 Z" fill="#000000" fill-rule="evenodd" fill-opacity="1" /><path clip-path="url(#clip640)" d="M83.9549 282.271 L102.311 282.271 L102.311 286.206 L88.2373 286.206 L88.2373 294.678 Q89.2558 294.331 90.2743 294.169 Q91.2928 293.984 92.3113 293.984 Q98.0984 293.984 101.478 297.155 Q104.858 300.327 104.858 305.743 Q104.858 311.322 101.385 314.424 Q97.9132 317.502 91.5938 317.502 Q89.4178 317.502 87.1493 317.132 Q84.904 316.762 82.4966 316.021 L82.4966 311.322 Q84.5799 312.456 86.8021 313.012 Q89.0243 313.567 91.5012 313.567 Q95.5058 313.567 97.8437 311.461 Q100.182 309.354 100.182 305.743 Q100.182 302.132 97.8437 300.026 Q95.5058 297.919 91.5012 297.919 Q89.6262 297.919 87.7512 298.336 Q85.8993 298.752 83.9549 299.632 L83.9549 282.271 Z" fill="#000000" fill-rule="evenodd" fill-opacity="1" /><path clip-path="url(#clip640)" d="M124.07 285.35 Q120.459 285.35 118.631 288.915 Q116.825 292.456 116.825 299.586 Q116.825 306.692 118.631 310.257 Q120.459 313.799 124.07 313.799 Q127.705 313.799 129.51 310.257 Q131.339 306.692 131.339 299.586 Q131.339 292.456 129.51 288.915 Q127.705 285.35 124.07 285.35 M124.07 281.646 Q129.881 281.646 132.936 286.253 Q136.015 290.836 136.015 299.586 Q136.015 308.313 132.936 312.919 Q129.881 317.502 124.07 317.502 Q118.26 317.502 115.182 312.919 Q112.126 308.313 112.126 299.586 Q112.126 290.836 115.182 286.253 Q118.26 281.646 124.07 281.646 Z" fill="#000000" fill-rule="evenodd" fill-opacity="1" /><path clip-path="url(#clip640)" d="M154.232 285.35 Q150.621 285.35 148.793 288.915 Q146.987 292.456 146.987 299.586 Q146.987 306.692 148.793 310.257 Q150.621 313.799 154.232 313.799 Q157.867 313.799 159.672 310.257 Q161.501 306.692 161.501 299.586 Q161.501 292.456 159.672 288.915 Q157.867 285.35 154.232 285.35 M154.232 281.646 Q160.042 281.646 163.098 286.253 Q166.177 290.836 166.177 299.586 Q166.177 308.313 163.098 312.919 Q160.042 317.502 154.232 317.502 Q148.422 317.502 145.343 312.919 Q142.288 308.313 142.288 299.586 Q142.288 290.836 145.343 286.253 Q148.422 281.646 154.232 281.646 Z" fill="#000000" fill-rule="evenodd" fill-opacity="1" /><polyline clip-path="url(#clip642)" style="stroke:#009af9; stroke-linecap:butt; stroke-linejoin:round; stroke-width:4; stroke-opacity:1; fill:none" points="
  263.042,1425.8 280.091,1445.72 297.14,1417.18 314.19,1353.12 331.239,1279.9 348.288,1174.38 365.337,1093.09 382.386,1097.4 399.435,1015.03 416.484,926.2 
  433.534,897.667 450.583,881.516 467.632,950.964 484.681,938.582 501.73,791.072 518.779,789.995 535.828,822.297 552.878,793.226 569.927,802.916 586.976,834.141 
  604.025,838.448 621.074,811.53 638.123,746.388 655.172,697.936 672.222,651.099 689.271,630.641 706.32,600.493 723.369,611.26 740.418,641.409 757.467,601.032 
  774.517,581.651 791.566,591.88 808.615,564.962 825.664,543.427 842.713,516.509 859.762,482.054 876.811,439.524 893.861,401.839 910.91,371.691 927.959,333.468 
  945.008,428.757 962.057,421.22 979.106,433.602 996.155,456.213 1013.2,456.752 1030.25,403.454 1047.3,348.542 1064.35,297.936 1081.4,255.944 1098.45,215.029 
  1115.5,187.034 1132.55,161.193 1149.6,138.582 1166.65,91.2064 1183.7,87.9763 1200.75,95.5133 1217.79,100.359 1234.84,87.9763 1251.89,115.433 1268.94,119.201 
  1285.99,148.811 1303.04,150.426 1320.09,173.037 1337.14,168.73 1354.19,181.651 1371.24,230.641 1388.29,240.87 1405.33,260.251 1422.38,336.159 1439.43,494.437 
  1456.48,546.119 1473.53,537.505 1490.58,605.339 1507.63,679.632 1524.68,681.785 1541.73,586.496 1558.78,479.901 1575.83,430.372 1592.88,428.757 1609.92,379.766 
  1626.97,343.696 1644.02,338.851 1661.07,357.155 1678.12,362.001 1695.17,363.616 1712.22,378.151 1729.27,338.313 1746.32,339.928 1763.37,348.003 1780.42,316.779 
  1797.47,330.237 1814.51,363.616 1831.56,324.316 1848.61,294.706 1865.66,281.247 1882.71,214.49 1899.76,194.033 1916.81,182.727 1933.86,165.5 1950.91,166.038 
  1967.96,175.729 1985.01,189.726 2002.05,187.034 2019.1,222.566 2036.15,258.097 2053.2,225.258 2070.25,290.399 2087.3,342.081 2104.35,342.62 2121.4,271.018 
  2138.45,239.793 2155.5,252.176 2172.55,320.547 2189.6,301.704 2206.64,299.551 2223.69,334.544 2240.74,309.242 2257.79,326.469 2274.84,302.781 2291.89,282.324 
  
  "/>
<path clip-path="url(#clip640)" d="
M1989.69 198.898 L2281.07 198.898 L2281.07 95.2176 L1989.69 95.2176  Z
  " fill="#ffffff" fill-rule="evenodd" fill-opacity="1"/>
<polyline clip-path="url(#clip640)" style="stroke:#000000; stroke-linecap:butt; stroke-linejoin:round; stroke-width:4; stroke-opacity:1; fill:none" points="
  1989.69,198.898 2281.07,198.898 2281.07,95.2176 1989.69,95.2176 1989.69,198.898 
  "/>
<polyline clip-path="url(#clip640)" style="stroke:#009af9; stroke-linecap:butt; stroke-linejoin:round; stroke-width:4; stroke-opacity:1; fill:none" points="
  2013.58,147.058 2156.95,147.058 
  "/>
<path clip-path="url(#clip640)" d="M2194.69 166.745 Q2192.89 171.375 2191.17 172.787 Q2189.46 174.199 2186.59 174.199 L2183.19 174.199 L2183.19 170.634 L2185.69 170.634 Q2187.45 170.634 2188.42 169.8 Q2189.39 168.967 2190.57 165.865 L2191.34 163.921 L2180.85 138.412 L2185.36 138.412 L2193.46 158.689 L2201.57 138.412 L2206.08 138.412 L2194.69 166.745 Z" fill="#000000" fill-rule="evenodd" fill-opacity="1" /><path clip-path="url(#clip640)" d="M2213.37 160.402 L2221.01 160.402 L2221.01 134.037 L2212.7 135.703 L2212.7 131.444 L2220.96 129.778 L2225.64 129.778 L2225.64 160.402 L2233.28 160.402 L2233.28 164.338 L2213.37 164.338 L2213.37 160.402 Z" fill="#000000" fill-rule="evenodd" fill-opacity="1" /></svg>
