<?xml version="1.0" encoding="utf-8"?>
<svg xmlns="http://www.w3.org/2000/svg" xmlns:xlink="http://www.w3.org/1999/xlink" width="600" height="400" viewBox="0 0 2400 1600">
<defs>
  <clipPath id="clip720">
    <rect x="0" y="0" width="2400" height="1600"/>
  </clipPath>
</defs>
<path clip-path="url(#clip720)" d="
M0 1600 L2400 1600 L2400 0 L0 0  Z
  " fill="#ffffff" fill-rule="evenodd" fill-opacity="1"/>
<defs>
  <clipPath id="clip721">
    <rect x="480" y="0" width="1681" height="1600"/>
  </clipPath>
</defs>
<path clip-path="url(#clip720)" d="
M216.436 1486.45 L2352.76 1486.45 L2352.76 47.2441 L216.436 47.2441  Z
  " fill="#ffffff" fill-rule="evenodd" fill-opacity="1"/>
<defs>
  <clipPath id="clip722">
    <rect x="216" y="47" width="2137" height="1440"/>
  </clipPath>
</defs>
<polyline clip-path="url(#clip722)" style="stroke:#000000; stroke-linecap:butt; stroke-linejoin:round; stroke-width:2; stroke-opacity:0.1; fill:none" points="
  570.046,1486.45 570.046,47.2441 
  "/>
<polyline clip-path="url(#clip722)" style="stroke:#000000; stroke-linecap:butt; stroke-linejoin:round; stroke-width:2; stroke-opacity:0.1; fill:none" points="
  1028.09,1486.45 1028.09,47.2441 
  "/>
<polyline clip-path="url(#clip722)" style="stroke:#000000; stroke-linecap:butt; stroke-linejoin:round; stroke-width:2; stroke-opacity:0.1; fill:none" points="
  1486.14,1486.45 1486.14,47.2441 
  "/>
<polyline clip-path="url(#clip722)" style="stroke:#000000; stroke-linecap:butt; stroke-linejoin:round; stroke-width:2; stroke-opacity:0.1; fill:none" points="
  1944.18,1486.45 1944.18,47.2441 
  "/>
<polyline clip-path="url(#clip720)" style="stroke:#000000; stroke-linecap:butt; stroke-linejoin:round; stroke-width:4; stroke-opacity:1; fill:none" points="
  216.436,1486.45 2352.76,1486.45 
  "/>
<polyline clip-path="url(#clip720)" style="stroke:#000000; stroke-linecap:butt; stroke-linejoin:round; stroke-width:4; stroke-opacity:1; fill:none" points="
  570.046,1486.45 570.046,1469.18 
  "/>
<polyline clip-path="url(#clip720)" style="stroke:#000000; stroke-linecap:butt; stroke-linejoin:round; stroke-width:4; stroke-opacity:1; fill:none" points="
  1028.09,1486.45 1028.09,1469.18 
  "/>
<polyline clip-path="url(#clip720)" style="stroke:#000000; stroke-linecap:butt; stroke-linejoin:round; stroke-width:4; stroke-opacity:1; fill:none" points="
  1486.14,1486.45 1486.14,1469.18 
  "/>
<polyline clip-path="url(#clip720)" style="stroke:#000000; stroke-linecap:butt; stroke-linejoin:round; stroke-width:4; stroke-opacity:1; fill:none" points="
  1944.18,1486.45 1944.18,1469.18 
  "/>
<path clip-path="url(#clip720)" d="M549.317 1543.18 L565.637 1543.18 L565.637 1547.12 L543.692 1547.12 L543.692 1543.18 Q546.354 1540.43 550.938 1535.8 Q555.544 1531.15 556.725 1529.81 Q558.97 1527.28 559.85 1525.55 Q560.752 1523.79 560.752 1522.1 Q560.752 1519.34 558.808 1517.61 Q556.887 1515.87 553.785 1515.87 Q551.586 1515.87 549.132 1516.63 Q546.702 1517.4 543.924 1518.95 L543.924 1514.23 Q546.748 1513.09 549.202 1512.51 Q551.655 1511.93 553.692 1511.93 Q559.063 1511.93 562.257 1514.62 Q565.451 1517.31 565.451 1521.8 Q565.451 1523.93 564.641 1525.85 Q563.854 1527.74 561.748 1530.34 Q561.169 1531.01 558.067 1534.23 Q554.965 1537.42 549.317 1543.18 Z" fill="#000000" fill-rule="evenodd" fill-opacity="1" /><path clip-path="url(#clip720)" d="M575.498 1512.56 L593.854 1512.56 L593.854 1516.5 L579.78 1516.5 L579.78 1524.97 Q580.799 1524.62 581.817 1524.46 Q582.836 1524.27 583.854 1524.27 Q589.641 1524.27 593.021 1527.44 Q596.4 1530.62 596.4 1536.03 Q596.4 1541.61 592.928 1544.71 Q589.456 1547.79 583.137 1547.79 Q580.961 1547.79 578.692 1547.42 Q576.447 1547.05 574.039 1546.31 L574.039 1541.61 Q576.123 1542.74 578.345 1543.3 Q580.567 1543.86 583.044 1543.86 Q587.049 1543.86 589.386 1541.75 Q591.724 1539.64 591.724 1536.03 Q591.724 1532.42 589.386 1530.31 Q587.049 1528.21 583.044 1528.21 Q581.169 1528.21 579.294 1528.62 Q577.442 1529.04 575.498 1529.92 L575.498 1512.56 Z" fill="#000000" fill-rule="evenodd" fill-opacity="1" /><path clip-path="url(#clip720)" d="M1002.79 1512.56 L1021.15 1512.56 L1021.15 1516.5 L1007.07 1516.5 L1007.07 1524.97 Q1008.09 1524.62 1009.11 1524.46 Q1010.13 1524.27 1011.15 1524.27 Q1016.93 1524.27 1020.31 1527.44 Q1023.69 1530.62 1023.69 1536.03 Q1023.69 1541.61 1020.22 1544.71 Q1016.75 1547.79 1010.43 1547.79 Q1008.25 1547.79 1005.98 1547.42 Q1003.74 1547.05 1001.33 1546.31 L1001.33 1541.61 Q1003.42 1542.74 1005.64 1543.3 Q1007.86 1543.86 1010.34 1543.86 Q1014.34 1543.86 1016.68 1541.75 Q1019.02 1539.64 1019.02 1536.03 Q1019.02 1532.42 1016.68 1530.31 Q1014.34 1528.21 1010.34 1528.21 Q1008.46 1528.21 1006.59 1528.62 Q1004.73 1529.04 1002.79 1529.92 L1002.79 1512.56 Z" fill="#000000" fill-rule="evenodd" fill-opacity="1" /><path clip-path="url(#clip720)" d="M1042.91 1515.64 Q1039.29 1515.64 1037.47 1519.2 Q1035.66 1522.75 1035.66 1529.87 Q1035.66 1536.98 1037.47 1540.55 Q1039.29 1544.09 1042.91 1544.09 Q1046.54 1544.09 1048.35 1540.55 Q1050.17 1536.98 1050.17 1529.87 Q1050.17 1522.75 1048.35 1519.2 Q1046.54 1515.64 1042.91 1515.64 M1042.91 1511.93 Q1048.72 1511.93 1051.77 1516.54 Q1054.85 1521.12 1054.85 1529.87 Q1054.85 1538.6 1051.77 1543.21 Q1048.72 1547.79 1042.91 1547.79 Q1037.1 1547.79 1034.02 1543.21 Q1030.96 1538.6 1030.96 1529.87 Q1030.96 1521.12 1034.02 1516.54 Q1037.1 1511.93 1042.91 1511.93 Z" fill="#000000" fill-rule="evenodd" fill-opacity="1" /><path clip-path="url(#clip720)" d="M1459.99 1512.56 L1482.21 1512.56 L1482.21 1514.55 L1469.67 1547.12 L1464.78 1547.12 L1476.59 1516.5 L1459.99 1516.5 L1459.99 1512.56 Z" fill="#000000" fill-rule="evenodd" fill-opacity="1" /><path clip-path="url(#clip720)" d="M1491.38 1512.56 L1509.73 1512.56 L1509.73 1516.5 L1495.66 1516.5 L1495.66 1524.97 Q1496.68 1524.62 1497.7 1524.46 Q1498.72 1524.27 1499.73 1524.27 Q1505.52 1524.27 1508.9 1527.44 Q1512.28 1530.62 1512.28 1536.03 Q1512.28 1541.61 1508.81 1544.71 Q1505.34 1547.79 1499.02 1547.79 Q1496.84 1547.79 1494.57 1547.42 Q1492.33 1547.05 1489.92 1546.31 L1489.92 1541.61 Q1492 1542.74 1494.23 1543.3 Q1496.45 1543.86 1498.92 1543.86 Q1502.93 1543.86 1505.27 1541.75 Q1507.61 1539.64 1507.61 1536.03 Q1507.61 1532.42 1505.27 1530.31 Q1502.93 1528.21 1498.92 1528.21 Q1497.05 1528.21 1495.17 1528.62 Q1493.32 1529.04 1491.38 1529.92 L1491.38 1512.56 Z" fill="#000000" fill-rule="evenodd" fill-opacity="1" /><path clip-path="url(#clip720)" d="M1903.79 1543.18 L1911.43 1543.18 L1911.43 1516.82 L1903.12 1518.49 L1903.12 1514.23 L1911.38 1512.56 L1916.06 1512.56 L1916.06 1543.18 L1923.69 1543.18 L1923.69 1547.12 L1903.79 1547.12 L1903.79 1543.18 Z" fill="#000000" fill-rule="evenodd" fill-opacity="1" /><path clip-path="url(#clip720)" d="M1943.14 1515.64 Q1939.53 1515.64 1937.7 1519.2 Q1935.89 1522.75 1935.89 1529.87 Q1935.89 1536.98 1937.7 1540.55 Q1939.53 1544.09 1943.14 1544.09 Q1946.77 1544.09 1948.58 1540.55 Q1950.41 1536.98 1950.41 1529.87 Q1950.41 1522.75 1948.58 1519.2 Q1946.77 1515.64 1943.14 1515.64 M1943.14 1511.93 Q1948.95 1511.93 1952 1516.54 Q1955.08 1521.12 1955.08 1529.87 Q1955.08 1538.6 1952 1543.21 Q1948.95 1547.79 1943.14 1547.79 Q1937.33 1547.79 1934.25 1543.21 Q1931.19 1538.6 1931.19 1529.87 Q1931.19 1521.12 1934.25 1516.54 Q1937.33 1511.93 1943.14 1511.93 Z" fill="#000000" fill-rule="evenodd" fill-opacity="1" /><path clip-path="url(#clip720)" d="M1973.3 1515.64 Q1969.69 1515.64 1967.86 1519.2 Q1966.06 1522.75 1966.06 1529.87 Q1966.06 1536.98 1967.86 1540.55 Q1969.69 1544.09 1973.3 1544.09 Q1976.93 1544.09 1978.74 1540.55 Q1980.57 1536.98 1980.57 1529.87 Q1980.57 1522.75 1978.74 1519.2 Q1976.93 1515.64 1973.3 1515.64 M1973.3 1511.93 Q1979.11 1511.93 1982.17 1516.54 Q1985.24 1521.12 1985.24 1529.87 Q1985.24 1538.6 1982.17 1543.21 Q1979.11 1547.79 1973.3 1547.79 Q1967.49 1547.79 1964.41 1543.21 Q1961.36 1538.6 1961.36 1529.87 Q1961.36 1521.12 1964.41 1516.54 Q1967.49 1511.93 1973.3 1511.93 Z" fill="#000000" fill-rule="evenodd" fill-opacity="1" /><polyline clip-path="url(#clip722)" style="stroke:#000000; stroke-linecap:butt; stroke-linejoin:round; stroke-width:2; stroke-opacity:0.1; fill:none" points="
  216.436,1318.12 2352.76,1318.12 
  "/>
<polyline clip-path="url(#clip722)" style="stroke:#000000; stroke-linecap:butt; stroke-linejoin:round; stroke-width:2; stroke-opacity:0.1; fill:none" points="
  216.436,1093.06 2352.76,1093.06 
  "/>
<polyline clip-path="url(#clip722)" style="stroke:#000000; stroke-linecap:butt; stroke-linejoin:round; stroke-width:2; stroke-opacity:0.1; fill:none" points="
  216.436,867.997 2352.76,867.997 
  "/>
<polyline clip-path="url(#clip722)" style="stroke:#000000; stroke-linecap:butt; stroke-linejoin:round; stroke-width:2; stroke-opacity:0.1; fill:none" points="
  216.436,642.938 2352.76,642.938 
  "/>
<polyline clip-path="url(#clip722)" style="stroke:#000000; stroke-linecap:butt; stroke-linejoin:round; stroke-width:2; stroke-opacity:0.1; fill:none" points="
  216.436,417.878 2352.76,417.878 
  "/>
<polyline clip-path="url(#clip722)" style="stroke:#000000; stroke-linecap:butt; stroke-linejoin:round; stroke-width:2; stroke-opacity:0.1; fill:none" points="
  216.436,192.819 2352.76,192.819 
  "/>
<polyline clip-path="url(#clip720)" style="stroke:#000000; stroke-linecap:butt; stroke-linejoin:round; stroke-width:4; stroke-opacity:1; fill:none" points="
  216.436,1486.45 216.436,47.2441 
  "/>
<polyline clip-path="url(#clip720)" style="stroke:#000000; stroke-linecap:butt; stroke-linejoin:round; stroke-width:4; stroke-opacity:1; fill:none" points="
  216.436,1318.12 242.072,1318.12 
  "/>
<polyline clip-path="url(#clip720)" style="stroke:#000000; stroke-linecap:butt; stroke-linejoin:round; stroke-width:4; stroke-opacity:1; fill:none" points="
  216.436,1093.06 242.072,1093.06 
  "/>
<polyline clip-path="url(#clip720)" style="stroke:#000000; stroke-linecap:butt; stroke-linejoin:round; stroke-width:4; stroke-opacity:1; fill:none" points="
  216.436,867.997 242.072,867.997 
  "/>
<polyline clip-path="url(#clip720)" style="stroke:#000000; stroke-linecap:butt; stroke-linejoin:round; stroke-width:4; stroke-opacity:1; fill:none" points="
  216.436,642.938 242.072,642.938 
  "/>
<polyline clip-path="url(#clip720)" style="stroke:#000000; stroke-linecap:butt; stroke-linejoin:round; stroke-width:4; stroke-opacity:1; fill:none" points="
  216.436,417.878 242.072,417.878 
  "/>
<polyline clip-path="url(#clip720)" style="stroke:#000000; stroke-linecap:butt; stroke-linejoin:round; stroke-width:4; stroke-opacity:1; fill:none" points="
  216.436,192.819 242.072,192.819 
  "/>
<path clip-path="url(#clip720)" d="M62.9365 1303.91 Q59.3254 1303.91 57.4967 1307.48 Q55.6912 1311.02 55.6912 1318.15 Q55.6912 1325.26 57.4967 1328.82 Q59.3254 1332.36 62.9365 1332.36 Q66.5707 1332.36 68.3763 1328.82 Q70.205 1325.26 70.205 1318.15 Q70.205 1311.02 68.3763 1307.48 Q66.5707 1303.91 62.9365 1303.91 M62.9365 1300.21 Q68.7467 1300.21 71.8022 1304.82 Q74.8809 1309.4 74.8809 1318.15 Q74.8809 1326.88 71.8022 1331.48 Q68.7467 1336.07 62.9365 1336.07 Q57.1264 1336.07 54.0477 1331.48 Q50.9921 1326.88 50.9921 1318.15 Q50.9921 1309.4 54.0477 1304.82 Q57.1264 1300.21 62.9365 1300.21 Z" fill="#000000" fill-rule="evenodd" fill-opacity="1" /><path clip-path="url(#clip720)" d="M83.0984 1329.52 L87.9827 1329.52 L87.9827 1335.4 L83.0984 1335.4 L83.0984 1329.52 Z" fill="#000000" fill-rule="evenodd" fill-opacity="1" /><path clip-path="url(#clip720)" d="M108.168 1303.91 Q104.557 1303.91 102.728 1307.48 Q100.922 1311.02 100.922 1318.15 Q100.922 1325.26 102.728 1328.82 Q104.557 1332.36 108.168 1332.36 Q111.802 1332.36 113.608 1328.82 Q115.436 1325.26 115.436 1318.15 Q115.436 1311.02 113.608 1307.48 Q111.802 1303.91 108.168 1303.91 M108.168 1300.21 Q113.978 1300.21 117.033 1304.82 Q120.112 1309.4 120.112 1318.15 Q120.112 1326.88 117.033 1331.48 Q113.978 1336.07 108.168 1336.07 Q102.358 1336.07 99.2789 1331.48 Q96.2234 1326.88 96.2234 1318.15 Q96.2234 1309.4 99.2789 1304.82 Q102.358 1300.21 108.168 1300.21 Z" fill="#000000" fill-rule="evenodd" fill-opacity="1" /><path clip-path="url(#clip720)" d="M138.33 1303.91 Q134.719 1303.91 132.89 1307.48 Q131.084 1311.02 131.084 1318.15 Q131.084 1325.26 132.89 1328.82 Q134.719 1332.36 138.33 1332.36 Q141.964 1332.36 143.769 1328.82 Q145.598 1325.26 145.598 1318.15 Q145.598 1311.02 143.769 1307.48 Q141.964 1303.91 138.33 1303.91 M138.33 1300.21 Q144.14 1300.21 147.195 1304.82 Q150.274 1309.4 150.274 1318.15 Q150.274 1326.88 147.195 1331.48 Q144.14 1336.07 138.33 1336.07 Q132.519 1336.07 129.441 1331.48 Q126.385 1326.88 126.385 1318.15 Q126.385 1309.4 129.441 1304.82 Q132.519 1300.21 138.33 1300.21 Z" fill="#000000" fill-rule="evenodd" fill-opacity="1" /><path clip-path="url(#clip720)" d="M168.491 1303.91 Q164.88 1303.91 163.052 1307.48 Q161.246 1311.02 161.246 1318.15 Q161.246 1325.26 163.052 1328.82 Q164.88 1332.36 168.491 1332.36 Q172.126 1332.36 173.931 1328.82 Q175.76 1325.26 175.76 1318.15 Q175.76 1311.02 173.931 1307.48 Q172.126 1303.91 168.491 1303.91 M168.491 1300.21 Q174.302 1300.21 177.357 1304.82 Q180.436 1309.4 180.436 1318.15 Q180.436 1326.88 177.357 1331.48 Q174.302 1336.07 168.491 1336.07 Q162.681 1336.07 159.603 1331.48 Q156.547 1326.88 156.547 1318.15 Q156.547 1309.4 159.603 1304.82 Q162.681 1300.21 168.491 1300.21 Z" fill="#000000" fill-rule="evenodd" fill-opacity="1" /><path clip-path="url(#clip720)" d="M63.9319 1078.86 Q60.3208 1078.86 58.4921 1082.42 Q56.6865 1085.96 56.6865 1093.09 Q56.6865 1100.2 58.4921 1103.76 Q60.3208 1107.3 63.9319 1107.3 Q67.5661 1107.3 69.3717 1103.76 Q71.2004 1100.2 71.2004 1093.09 Q71.2004 1085.96 69.3717 1082.42 Q67.5661 1078.86 63.9319 1078.86 M63.9319 1075.15 Q69.742 1075.15 72.7976 1079.76 Q75.8763 1084.34 75.8763 1093.09 Q75.8763 1101.82 72.7976 1106.42 Q69.742 1111.01 63.9319 1111.01 Q58.1217 1111.01 55.043 1106.42 Q51.9875 1101.82 51.9875 1093.09 Q51.9875 1084.34 55.043 1079.76 Q58.1217 1075.15 63.9319 1075.15 Z" fill="#000000" fill-rule="evenodd" fill-opacity="1" /><path clip-path="url(#clip720)" d="M84.0938 1104.46 L88.978 1104.46 L88.978 1110.34 L84.0938 1110.34 L84.0938 1104.46 Z" fill="#000000" fill-rule="evenodd" fill-opacity="1" /><path clip-path="url(#clip720)" d="M109.163 1078.86 Q105.552 1078.86 103.723 1082.42 Q101.918 1085.96 101.918 1093.09 Q101.918 1100.2 103.723 1103.76 Q105.552 1107.3 109.163 1107.3 Q112.797 1107.3 114.603 1103.76 Q116.432 1100.2 116.432 1093.09 Q116.432 1085.96 114.603 1082.42 Q112.797 1078.86 109.163 1078.86 M109.163 1075.15 Q114.973 1075.15 118.029 1079.76 Q121.107 1084.34 121.107 1093.09 Q121.107 1101.82 118.029 1106.42 Q114.973 1111.01 109.163 1111.01 Q103.353 1111.01 100.274 1106.42 Q97.2187 1101.82 97.2187 1093.09 Q97.2187 1084.34 100.274 1079.76 Q103.353 1075.15 109.163 1075.15 Z" fill="#000000" fill-rule="evenodd" fill-opacity="1" /><path clip-path="url(#clip720)" d="M139.325 1078.86 Q135.714 1078.86 133.885 1082.42 Q132.08 1085.96 132.08 1093.09 Q132.08 1100.2 133.885 1103.76 Q135.714 1107.3 139.325 1107.3 Q142.959 1107.3 144.765 1103.76 Q146.593 1100.2 146.593 1093.09 Q146.593 1085.96 144.765 1082.42 Q142.959 1078.86 139.325 1078.86 M139.325 1075.15 Q145.135 1075.15 148.191 1079.76 Q151.269 1084.34 151.269 1093.09 Q151.269 1101.82 148.191 1106.42 Q145.135 1111.01 139.325 1111.01 Q133.515 1111.01 130.436 1106.42 Q127.381 1101.82 127.381 1093.09 Q127.381 1084.34 130.436 1079.76 Q133.515 1075.15 139.325 1075.15 Z" fill="#000000" fill-rule="evenodd" fill-opacity="1" /><path clip-path="url(#clip720)" d="M159.533 1075.78 L177.89 1075.78 L177.89 1079.71 L163.816 1079.71 L163.816 1088.18 Q164.834 1087.84 165.853 1087.67 Q166.871 1087.49 167.89 1087.49 Q173.677 1087.49 177.056 1090.66 Q180.436 1093.83 180.436 1099.25 Q180.436 1104.83 176.964 1107.93 Q173.491 1111.01 167.172 1111.01 Q164.996 1111.01 162.728 1110.64 Q160.482 1110.27 158.075 1109.53 L158.075 1104.83 Q160.158 1105.96 162.38 1106.52 Q164.603 1107.07 167.079 1107.07 Q171.084 1107.07 173.422 1104.97 Q175.76 1102.86 175.76 1099.25 Q175.76 1095.64 173.422 1093.53 Q171.084 1091.42 167.079 1091.42 Q165.204 1091.42 163.329 1091.84 Q161.478 1092.26 159.533 1093.14 L159.533 1075.78 Z" fill="#000000" fill-rule="evenodd" fill-opacity="1" /><path clip-path="url(#clip720)" d="M62.9365 853.796 Q59.3254 853.796 57.4967 857.361 Q55.6912 860.902 55.6912 868.032 Q55.6912 875.138 57.4967 878.703 Q59.3254 882.245 62.9365 882.245 Q66.5707 882.245 68.3763 878.703 Q70.205 875.138 70.205 868.032 Q70.205 860.902 68.3763 857.361 Q66.5707 853.796 62.9365 853.796 M62.9365 850.092 Q68.7467 850.092 71.8022 854.699 Q74.8809 859.282 74.8809 868.032 Q74.8809 876.759 71.8022 881.365 Q68.7467 885.948 62.9365 885.948 Q57.1264 885.948 54.0477 881.365 Q50.9921 876.759 50.9921 868.032 Q50.9921 859.282 54.0477 854.699 Q57.1264 850.092 62.9365 850.092 Z" fill="#000000" fill-rule="evenodd" fill-opacity="1" /><path clip-path="url(#clip720)" d="M83.0984 879.398 L87.9827 879.398 L87.9827 885.277 L83.0984 885.277 L83.0984 879.398 Z" fill="#000000" fill-rule="evenodd" fill-opacity="1" /><path clip-path="url(#clip720)" d="M108.168 853.796 Q104.557 853.796 102.728 857.361 Q100.922 860.902 100.922 868.032 Q100.922 875.138 102.728 878.703 Q104.557 882.245 108.168 882.245 Q111.802 882.245 113.608 878.703 Q115.436 875.138 115.436 868.032 Q115.436 860.902 113.608 857.361 Q111.802 853.796 108.168 853.796 M108.168 850.092 Q113.978 850.092 117.033 854.699 Q120.112 859.282 120.112 868.032 Q120.112 876.759 117.033 881.365 Q113.978 885.948 108.168 885.948 Q102.358 885.948 99.2789 881.365 Q96.2234 876.759 96.2234 868.032 Q96.2234 859.282 99.2789 854.699 Q102.358 850.092 108.168 850.092 Z" fill="#000000" fill-rule="evenodd" fill-opacity="1" /><path clip-path="url(#clip720)" d="M129.14 881.342 L136.779 881.342 L136.779 854.976 L128.469 856.643 L128.469 852.384 L136.732 850.717 L141.408 850.717 L141.408 881.342 L149.047 881.342 L149.047 885.277 L129.14 885.277 L129.14 881.342 Z" fill="#000000" fill-rule="evenodd" fill-opacity="1" /><path clip-path="url(#clip720)" d="M168.491 853.796 Q164.88 853.796 163.052 857.361 Q161.246 860.902 161.246 868.032 Q161.246 875.138 163.052 878.703 Q164.88 882.245 168.491 882.245 Q172.126 882.245 173.931 878.703 Q175.76 875.138 175.76 868.032 Q175.76 860.902 173.931 857.361 Q172.126 853.796 168.491 853.796 M168.491 850.092 Q174.302 850.092 177.357 854.699 Q180.436 859.282 180.436 868.032 Q180.436 876.759 177.357 881.365 Q174.302 885.948 168.491 885.948 Q162.681 885.948 159.603 881.365 Q156.547 876.759 156.547 868.032 Q156.547 859.282 159.603 854.699 Q162.681 850.092 168.491 850.092 Z" fill="#000000" fill-rule="evenodd" fill-opacity="1" /><path clip-path="url(#clip720)" d="M63.9319 628.736 Q60.3208 628.736 58.4921 632.301 Q56.6865 635.843 56.6865 642.972 Q56.6865 650.079 58.4921 653.644 Q60.3208 657.185 63.9319 657.185 Q67.5661 657.185 69.3717 653.644 Q71.2004 650.079 71.2004 642.972 Q71.2004 635.843 69.3717 632.301 Q67.5661 628.736 63.9319 628.736 M63.9319 625.033 Q69.742 625.033 72.7976 629.639 Q75.8763 634.222 75.8763 642.972 Q75.8763 651.699 72.7976 656.306 Q69.742 660.889 63.9319 660.889 Q58.1217 660.889 55.043 656.306 Q51.9875 651.699 51.9875 642.972 Q51.9875 634.222 55.043 629.639 Q58.1217 625.033 63.9319 625.033 Z" fill="#000000" fill-rule="evenodd" fill-opacity="1" /><path clip-path="url(#clip720)" d="M84.0938 654.338 L88.978 654.338 L88.978 660.218 L84.0938 660.218 L84.0938 654.338 Z" fill="#000000" fill-rule="evenodd" fill-opacity="1" /><path clip-path="url(#clip720)" d="M109.163 628.736 Q105.552 628.736 103.723 632.301 Q101.918 635.843 101.918 642.972 Q101.918 650.079 103.723 653.644 Q105.552 657.185 109.163 657.185 Q112.797 657.185 114.603 653.644 Q116.432 650.079 116.432 642.972 Q116.432 635.843 114.603 632.301 Q112.797 628.736 109.163 628.736 M109.163 625.033 Q114.973 625.033 118.029 629.639 Q121.107 634.222 121.107 642.972 Q121.107 651.699 118.029 656.306 Q114.973 660.889 109.163 660.889 Q103.353 660.889 100.274 656.306 Q97.2187 651.699 97.2187 642.972 Q97.2187 634.222 100.274 629.639 Q103.353 625.033 109.163 625.033 Z" fill="#000000" fill-rule="evenodd" fill-opacity="1" /><path clip-path="url(#clip720)" d="M130.135 656.283 L137.774 656.283 L137.774 629.917 L129.464 631.584 L129.464 627.324 L137.728 625.658 L142.404 625.658 L142.404 656.283 L150.043 656.283 L150.043 660.218 L130.135 660.218 L130.135 656.283 Z" fill="#000000" fill-rule="evenodd" fill-opacity="1" /><path clip-path="url(#clip720)" d="M159.533 625.658 L177.89 625.658 L177.89 629.593 L163.816 629.593 L163.816 638.065 Q164.834 637.718 165.853 637.556 Q166.871 637.371 167.89 637.371 Q173.677 637.371 177.056 640.542 Q180.436 643.713 180.436 649.13 Q180.436 654.708 176.964 657.81 Q173.491 660.889 167.172 660.889 Q164.996 660.889 162.728 660.519 Q160.482 660.148 158.075 659.408 L158.075 654.708 Q160.158 655.843 162.38 656.398 Q164.603 656.954 167.079 656.954 Q171.084 656.954 173.422 654.847 Q175.76 652.741 175.76 649.13 Q175.76 645.519 173.422 643.412 Q171.084 641.306 167.079 641.306 Q165.204 641.306 163.329 641.722 Q161.478 642.139 159.533 643.019 L159.533 625.658 Z" fill="#000000" fill-rule="evenodd" fill-opacity="1" /><path clip-path="url(#clip720)" d="M62.9365 403.677 Q59.3254 403.677 57.4967 407.242 Q55.6912 410.783 55.6912 417.913 Q55.6912 425.019 57.4967 428.584 Q59.3254 432.126 62.9365 432.126 Q66.5707 432.126 68.3763 428.584 Q70.205 425.019 70.205 417.913 Q70.205 410.783 68.3763 407.242 Q66.5707 403.677 62.9365 403.677 M62.9365 399.973 Q68.7467 399.973 71.8022 404.58 Q74.8809 409.163 74.8809 417.913 Q74.8809 426.64 71.8022 431.246 Q68.7467 435.83 62.9365 435.83 Q57.1264 435.83 54.0477 431.246 Q50.9921 426.64 50.9921 417.913 Q50.9921 409.163 54.0477 404.58 Q57.1264 399.973 62.9365 399.973 Z" fill="#000000" fill-rule="evenodd" fill-opacity="1" /><path clip-path="url(#clip720)" d="M83.0984 429.279 L87.9827 429.279 L87.9827 435.158 L83.0984 435.158 L83.0984 429.279 Z" fill="#000000" fill-rule="evenodd" fill-opacity="1" /><path clip-path="url(#clip720)" d="M108.168 403.677 Q104.557 403.677 102.728 407.242 Q100.922 410.783 100.922 417.913 Q100.922 425.019 102.728 428.584 Q104.557 432.126 108.168 432.126 Q111.802 432.126 113.608 428.584 Q115.436 425.019 115.436 417.913 Q115.436 410.783 113.608 407.242 Q111.802 403.677 108.168 403.677 M108.168 399.973 Q113.978 399.973 117.033 404.58 Q120.112 409.163 120.112 417.913 Q120.112 426.64 117.033 431.246 Q113.978 435.83 108.168 435.83 Q102.358 435.83 99.2789 431.246 Q96.2234 426.64 96.2234 417.913 Q96.2234 409.163 99.2789 404.58 Q102.358 399.973 108.168 399.973 Z" fill="#000000" fill-rule="evenodd" fill-opacity="1" /><path clip-path="url(#clip720)" d="M132.357 431.223 L148.677 431.223 L148.677 435.158 L126.732 435.158 L126.732 431.223 Q129.394 428.469 133.978 423.839 Q138.584 419.186 139.765 417.844 Q142.01 415.32 142.89 413.584 Q143.793 411.825 143.793 410.135 Q143.793 407.381 141.848 405.645 Q139.927 403.908 136.825 403.908 Q134.626 403.908 132.172 404.672 Q129.742 405.436 126.964 406.987 L126.964 402.265 Q129.788 401.131 132.242 400.552 Q134.695 399.973 136.732 399.973 Q142.103 399.973 145.297 402.658 Q148.492 405.344 148.492 409.834 Q148.492 411.964 147.681 413.885 Q146.894 415.783 144.788 418.376 Q144.209 419.047 141.107 422.265 Q138.006 425.459 132.357 431.223 Z" fill="#000000" fill-rule="evenodd" fill-opacity="1" /><path clip-path="url(#clip720)" d="M168.491 403.677 Q164.88 403.677 163.052 407.242 Q161.246 410.783 161.246 417.913 Q161.246 425.019 163.052 428.584 Q164.88 432.126 168.491 432.126 Q172.126 432.126 173.931 428.584 Q175.76 425.019 175.76 417.913 Q175.76 410.783 173.931 407.242 Q172.126 403.677 168.491 403.677 M168.491 399.973 Q174.302 399.973 177.357 404.58 Q180.436 409.163 180.436 417.913 Q180.436 426.64 177.357 431.246 Q174.302 435.83 168.491 435.83 Q162.681 435.83 159.603 431.246 Q156.547 426.64 156.547 417.913 Q156.547 409.163 159.603 404.58 Q162.681 399.973 168.491 399.973 Z" fill="#000000" fill-rule="evenodd" fill-opacity="1" /><path clip-path="url(#clip720)" d="M63.9319 178.618 Q60.3208 178.618 58.4921 182.182 Q56.6865 185.724 56.6865 192.854 Q56.6865 199.96 58.4921 203.525 Q60.3208 207.066 63.9319 207.066 Q67.5661 207.066 69.3717 203.525 Q71.2004 199.96 71.2004 192.854 Q71.2004 185.724 69.3717 182.182 Q67.5661 178.618 63.9319 178.618 M63.9319 174.914 Q69.742 174.914 72.7976 179.52 Q75.8763 184.104 75.8763 192.854 Q75.8763 201.58 72.7976 206.187 Q69.742 210.77 63.9319 210.77 Q58.1217 210.77 55.043 206.187 Q51.9875 201.58 51.9875 192.854 Q51.9875 184.104 55.043 179.52 Q58.1217 174.914 63.9319 174.914 Z" fill="#000000" fill-rule="evenodd" fill-opacity="1" /><path clip-path="url(#clip720)" d="M84.0938 204.219 L88.978 204.219 L88.978 210.099 L84.0938 210.099 L84.0938 204.219 Z" fill="#000000" fill-rule="evenodd" fill-opacity="1" /><path clip-path="url(#clip720)" d="M109.163 178.618 Q105.552 178.618 103.723 182.182 Q101.918 185.724 101.918 192.854 Q101.918 199.96 103.723 203.525 Q105.552 207.066 109.163 207.066 Q112.797 207.066 114.603 203.525 Q116.432 199.96 116.432 192.854 Q116.432 185.724 114.603 182.182 Q112.797 178.618 109.163 178.618 M109.163 174.914 Q114.973 174.914 118.029 179.52 Q121.107 184.104 121.107 192.854 Q121.107 201.58 118.029 206.187 Q114.973 210.77 109.163 210.77 Q103.353 210.77 100.274 206.187 Q97.2187 201.58 97.2187 192.854 Q97.2187 184.104 100.274 179.52 Q103.353 174.914 109.163 174.914 Z" fill="#000000" fill-rule="evenodd" fill-opacity="1" /><path clip-path="url(#clip720)" d="M133.353 206.164 L149.672 206.164 L149.672 210.099 L127.728 210.099 L127.728 206.164 Q130.39 203.409 134.973 198.779 Q139.58 194.127 140.76 192.784 Q143.006 190.261 143.885 188.525 Q144.788 186.766 144.788 185.076 Q144.788 182.321 142.843 180.585 Q140.922 178.849 137.82 178.849 Q135.621 178.849 133.168 179.613 Q130.737 180.377 127.959 181.928 L127.959 177.206 Q130.783 176.071 133.237 175.493 Q135.691 174.914 137.728 174.914 Q143.098 174.914 146.293 177.599 Q149.487 180.284 149.487 184.775 Q149.487 186.905 148.677 188.826 Q147.89 190.724 145.783 193.317 Q145.205 193.988 142.103 197.205 Q139.001 200.4 133.353 206.164 Z" fill="#000000" fill-rule="evenodd" fill-opacity="1" /><path clip-path="url(#clip720)" d="M159.533 175.539 L177.89 175.539 L177.89 179.474 L163.816 179.474 L163.816 187.946 Q164.834 187.599 165.853 187.437 Q166.871 187.252 167.89 187.252 Q173.677 187.252 177.056 190.423 Q180.436 193.594 180.436 199.011 Q180.436 204.59 176.964 207.691 Q173.491 210.77 167.172 210.77 Q164.996 210.77 162.728 210.4 Q160.482 210.029 158.075 209.289 L158.075 204.59 Q160.158 205.724 162.38 206.279 Q164.603 206.835 167.079 206.835 Q171.084 206.835 173.422 204.729 Q175.76 202.622 175.76 199.011 Q175.76 195.4 173.422 193.293 Q171.084 191.187 167.079 191.187 Q165.204 191.187 163.329 191.604 Q161.478 192.02 159.533 192.9 L159.533 175.539 Z" fill="#000000" fill-rule="evenodd" fill-opacity="1" /><polyline clip-path="url(#clip722)" style="stroke:#009af9; stroke-linecap:butt; stroke-linejoin:round; stroke-width:4; stroke-opacity:1; fill:none" points="
  276.898,420.355 295.22,596.547 313.541,423.108 331.863,417.654 350.185,384.624 368.507,688.721 386.828,555.253 405.15,457.798 423.472,661.882 441.794,679.84 
  460.116,593.665 478.437,542.883 496.759,703.938 515.081,671.516 533.403,690.304 551.725,509.92 570.046,546.98 588.368,504.762 606.69,366.555 625.012,204.653 
  643.333,339.113 661.655,329.316 679.977,149.545 698.299,103.785 716.621,202.14 734.942,337.654 753.264,347.439 771.586,409.469 789.908,341.132 808.23,265.241 
  826.551,143.046 844.873,87.9763 863.195,185.213 881.517,323.861 899.838,355.486 918.16,463.887 936.482,613.999 954.804,502.918 973.126,635.374 991.447,915.173 
  1009.77,772.465 1028.09,825.191 1046.41,906.475 1064.73,850.894 1083.06,849.561 1101.38,860.192 1119.7,870.719 1138.02,994.842 1156.34,866.513 1174.67,814.402 
  1192.99,1090.53 1211.31,1078.87 1229.63,1054.87 1247.95,876.838 1266.27,709.177 1284.6,476.052 1302.92,558.774 1321.24,575.497 1339.56,717.274 1357.88,723.826 
  1376.2,683.087 1394.53,775.419 1412.85,674.56 1431.17,920.457 1449.49,1185.35 1467.81,1445.72 1486.14,1296.15 1504.46,1285.18 1522.78,1206.62 1541.1,1166.89 
  1559.42,1212 1577.74,1267.45 1596.07,1292.33 1614.39,1108.59 1632.71,1099.48 1651.03,1107.66 1669.35,1228.79 1687.68,1188.65 1706,1161.76 1724.32,1089.87 
  1742.64,1034.45 1760.96,1035.63 1779.28,1142.18 1797.61,1179.3 1815.93,963.435 1834.25,903.551 1852.57,914.925 1870.89,871.6 1889.21,1022.35 1907.54,1142.89 
  1925.86,1170.6 1944.18,1051.75 1962.5,920.95 1980.82,824.476 1999.15,905.825 2017.47,824.6 2035.79,755.501 2054.11,902.214 2072.43,833.614 2090.75,718.138 
  2109.08,721.96 2127.4,676.701 2145.72,737.903 2164.04,902.489 2182.36,877.976 2200.69,834.926 2219.01,874.117 2237.33,897.341 2255.65,689.361 2273.97,804.002 
  2292.29,760.874 
  "/>
<path clip-path="url(#clip720)" d="
M1991.75 198.898 L2281.55 198.898 L2281.55 95.2176 L1991.75 95.2176  Z
  " fill="#ffffff" fill-rule="evenodd" fill-opacity="1"/>
<polyline clip-path="url(#clip720)" style="stroke:#000000; stroke-linecap:butt; stroke-linejoin:round; stroke-width:4; stroke-opacity:1; fill:none" points="
  1991.75,198.898 2281.55,198.898 2281.55,95.2176 1991.75,95.2176 1991.75,198.898 
  "/>
<polyline clip-path="url(#clip720)" style="stroke:#009af9; stroke-linecap:butt; stroke-linejoin:round; stroke-width:4; stroke-opacity:1; fill:none" points="
  2015.48,147.058 2157.9,147.058 
  "/>
<path clip-path="url(#clip720)" d="M2195.48 166.745 Q2193.68 171.375 2191.97 172.787 Q2190.25 174.199 2187.38 174.199 L2183.98 174.199 L2183.98 170.634 L2186.48 170.634 Q2188.24 170.634 2189.21 169.8 Q2190.18 168.967 2191.36 165.865 L2192.13 163.921 L2181.64 138.412 L2186.16 138.412 L2194.26 158.689 L2202.36 138.412 L2206.87 138.412 L2195.48 166.745 Z" fill="#000000" fill-rule="evenodd" fill-opacity="1" /><path clip-path="url(#clip720)" d="M2214.16 160.402 L2221.8 160.402 L2221.8 134.037 L2213.49 135.703 L2213.49 131.444 L2221.76 129.778 L2226.43 129.778 L2226.43 160.402 L2234.07 160.402 L2234.07 164.338 L2214.16 164.338 L2214.16 160.402 Z" fill="#000000" fill-rule="evenodd" fill-opacity="1" /></svg>
